<svg width="37" height="37" viewBox="0 0 37 37" fill="none" xmlns="http://www.w3.org/2000/svg">
<path d="M30.3075 9.50611H27.0569C27.0569 5.14642 23.4812 1.72095 18.9303 1.72095C14.3794 1.72095 10.8037 5.14642 10.8037 9.50611H7.55301C5.76516 9.50611 4.30237 10.9074 4.30237 12.6202V31.3046C4.30237 33.0173 5.76516 34.4186 7.55301 34.4186H30.3075C32.0954 34.4186 33.5582 33.0173 33.5582 31.3046V12.6202C33.5582 10.9074 32.0954 9.50611 30.3075 9.50611ZM18.9303 4.83501C21.6933 4.83501 23.8062 6.85915 23.8062 9.50611H14.0543C14.0543 6.85915 16.1672 4.83501 18.9303 4.83501ZM30.3075 31.3046H7.55301V12.6202H30.3075V31.3046ZM18.9303 18.8483C16.1672 18.8483 14.0543 16.8242 14.0543 14.1772H10.8037C10.8037 18.5369 14.3794 21.9624 18.9303 21.9624C23.4812 21.9624 27.0569 18.5369 27.0569 14.1772H23.8062C23.8062 16.8242 21.6933 18.8483 18.9303 18.8483Z" fill="#353941"/>
</svg>
