<svg width="40" height="40" viewBox="0 0 40 40" fill="none" xmlns="http://www.w3.org/2000/svg">
<g clip-path="url(#clip0_57_249)">
<path fill-rule="evenodd" clip-rule="evenodd" d="M23.8 3.33337C24.4996 3.33356 25.1814 3.55385 25.7488 3.96305C26.3163 4.37226 26.7406 4.94962 26.9617 5.61337L27.8667 8.33337H33.3333C33.7754 8.33337 34.1993 8.50897 34.5118 8.82153C34.8244 9.13409 35 9.55801 35 10C35 10.4421 34.8244 10.866 34.5118 11.1786C34.1993 11.4911 33.7754 11.6667 33.3333 11.6667H31.6667V31.6667C31.6667 32.9928 31.1399 34.2646 30.2022 35.2022C29.2645 36.1399 27.9927 36.6667 26.6667 36.6667H13.3333C12.0073 36.6667 10.7355 36.1399 9.7978 35.2022C8.86012 34.2646 8.33333 32.9928 8.33333 31.6667V11.6667H6.66667C6.22464 11.6667 5.80072 11.4911 5.48816 11.1786C5.17559 10.866 5 10.4421 5 10C5 9.55801 5.17559 9.13409 5.48816 8.82153C5.80072 8.50897 6.22464 8.33337 6.66667 8.33337H12.1333L13.0383 5.61337C13.2595 4.94935 13.6841 4.37179 14.2518 3.96257C14.8196 3.55334 15.5018 3.33321 16.2017 3.33337H23.8ZM28.3333 11.6667H11.6667V31.6667C11.6667 32.1087 11.8423 32.5327 12.1548 32.8452C12.4674 33.1578 12.8913 33.3334 13.3333 33.3334H26.6667C27.1087 33.3334 27.5326 33.1578 27.8452 32.8452C28.1577 32.5327 28.3333 32.1087 28.3333 31.6667V11.6667ZM23.8 6.66671H16.2L15.645 8.33337H24.355L23.8 6.66671Z" fill="#353941"/>
</g>
<defs>
<clipPath id="clip0_57_249">
<rect width="40" height="40" fill="white"/>
</clipPath>
</defs>
</svg>
