<svg width="37" height="37" viewBox="0 0 37 37" fill="none" xmlns="http://www.w3.org/2000/svg">
<path d="M25.6121 4C22.7544 4 20.2183 5.18947 18.5 7.23392C16.7817 5.18947 14.2456 4 11.3879 4C8.89902 4.00318 6.51291 5.0472 4.75299 6.90308C2.99306 8.75896 2.00301 11.2752 2 13.8998C2 24.7505 17.0506 33.4203 17.6906 33.7848C17.9394 33.9261 18.2175 34 18.5 34C18.7825 34 19.0606 33.9261 19.3094 33.7848C19.9494 33.4203 35 24.7505 35 13.8998C34.997 11.2752 34.0069 8.75896 32.247 6.90308C30.4871 5.0472 28.101 4.00318 25.6121 4ZM24.8312 25.3535C22.8501 27.1262 20.7324 28.7217 18.5 30.1234C16.2676 28.7217 14.1499 27.1262 12.1688 25.3535C9.08646 22.5651 5.41379 18.3127 5.41379 13.8998C5.41379 12.2289 6.04321 10.6265 7.16358 9.4451C8.28395 8.26365 9.80349 7.59991 11.3879 7.59991C13.9198 7.59991 16.0392 9.00988 16.9197 11.2808C17.0478 11.6119 17.2666 11.8952 17.5481 12.0946C17.8295 12.294 18.1609 12.4005 18.5 12.4005C18.8391 12.4005 19.1705 12.294 19.4519 12.0946C19.7334 11.8952 19.9522 11.6119 20.0803 11.2808C20.9608 9.00988 23.0802 7.59991 25.6121 7.59991C27.1965 7.59991 28.7161 8.26365 29.8364 9.4451C30.9568 10.6265 31.5862 12.2289 31.5862 13.8998C31.5862 18.3127 27.9135 22.5651 24.8312 25.3535Z" fill="#353941"/>
</svg>
