<svg width="29" height="28" viewBox="0 0 29 28" fill="none" xmlns="http://www.w3.org/2000/svg">
<path d="M20.2574 3.88571C18.1044 3.88571 16.1935 4.7537 14.8989 6.2456C13.6043 4.7537 11.6935 3.88571 9.5404 3.88571C7.66516 3.88803 5.86737 4.64989 4.54137 6.00418C3.21537 7.35847 2.46943 9.19461 2.46716 11.1099C2.46716 19.028 13.8068 25.3546 14.2891 25.6206C14.4765 25.7236 14.6861 25.7776 14.8989 25.7776C15.1118 25.7776 15.3213 25.7236 15.5087 25.6206C15.991 25.3546 27.3307 19.028 27.3307 11.1099C27.3284 9.19461 26.5825 7.35847 25.2565 6.00418C23.9305 4.64989 22.1327 3.88803 20.2574 3.88571ZM19.6691 19.468C18.1765 20.7616 16.5809 21.9259 14.8989 22.9487C13.2169 21.9259 11.6214 20.7616 10.1288 19.468C7.80639 17.4332 5.03925 14.3301 5.03925 11.1099C5.03925 9.89061 5.51348 8.7213 6.35761 7.85916C7.20174 6.99702 8.34662 6.51268 9.5404 6.51268C11.448 6.51268 13.0449 7.54157 13.7083 9.19875C13.8048 9.44033 13.9696 9.64706 14.1817 9.79258C14.3937 9.93811 14.6434 10.0158 14.8989 10.0158C15.1544 10.0158 15.4041 9.93811 15.6161 9.79258C15.8282 9.64706 15.993 9.44033 16.0896 9.19875C16.753 7.54157 18.3498 6.51268 20.2574 6.51268C21.4512 6.51268 22.5961 6.99702 23.4402 7.85916C24.2844 8.7213 24.7586 9.89061 24.7586 11.1099C24.7586 14.3301 21.9914 17.4332 19.6691 19.468Z" fill="#9A9DA3"/>
</svg>
