<svg width="30" height="30" viewBox="0 0 30 30" fill="none" xmlns="http://www.w3.org/2000/svg">
<path d="M20.7665 3.24324C18.4495 3.24324 16.3932 4.20768 15 5.86534C13.6068 4.20768 11.5504 3.24324 9.23342 3.24324C7.21538 3.24582 5.2807 4.09232 3.85373 5.59709C2.42677 7.10186 1.62402 9.14202 1.62158 11.2701C1.62158 20.068 13.8247 27.0975 14.3437 27.3931C14.5454 27.5076 14.7709 27.5676 15 27.5676C15.229 27.5676 15.4545 27.5076 15.6562 27.3931C16.1752 27.0975 28.3783 20.068 28.3783 11.2701C28.3759 9.14202 27.5732 7.10186 26.1462 5.59709C24.7192 4.09232 22.7845 3.24582 20.7665 3.24324ZM20.1333 20.5569C18.5271 21.9942 16.81 23.2879 15 24.4244C13.1899 23.2879 11.4728 21.9942 9.86658 20.5569C7.36736 18.296 4.38952 14.8481 4.38952 11.2701C4.38952 9.91535 4.89986 8.61612 5.80827 7.65818C6.71667 6.70025 7.94874 6.16209 9.23342 6.16209C11.2863 6.16209 13.0047 7.30531 13.7186 9.14661C13.8225 9.41503 13.9999 9.64474 14.2281 9.80643C14.4563 9.96812 14.725 10.0545 15 10.0545C15.2749 10.0545 15.5436 9.96812 15.7718 9.80643C16 9.64474 16.1774 9.41503 16.2813 9.14661C16.9952 7.30531 18.7136 6.16209 20.7665 6.16209C22.0512 6.16209 23.2832 6.70025 24.1917 7.65818C25.1001 8.61612 25.6104 9.91535 25.6104 11.2701C25.6104 14.8481 22.6326 18.296 20.1333 20.5569Z" fill="#145AF8"/>
</svg>
