<svg width="50" height="50" viewBox="0 0 50 50" fill="none" xmlns="http://www.w3.org/2000/svg">
<path d="M25.625 1.25C12.17 1.25 1.25 12.17 1.25 25.625C1.25 39.08 12.17 50 25.625 50C39.08 50 50 39.08 50 25.625C50 12.17 39.08 1.25 25.625 1.25ZM36.935 17.825C36.5694 21.6763 34.985 31.0363 34.1806 35.3506C33.8394 37.1787 33.1569 37.7881 32.5231 37.8613C31.1094 37.9831 30.0369 36.935 28.6719 36.0331C26.5269 34.6194 25.3081 33.7419 23.2362 32.3769C20.8231 30.7925 22.3831 29.915 23.7725 28.5013C24.1381 28.1356 30.3781 22.4563 30.5 21.9444C30.5169 21.8668 30.5147 21.7864 30.4934 21.7099C30.4722 21.6334 30.4326 21.5633 30.3781 21.5056C30.2319 21.3838 30.0369 21.4325 29.8663 21.4569C29.6469 21.5056 26.2344 23.7725 19.58 28.2575C18.605 28.9156 17.7275 29.2569 16.9475 29.2325C16.07 29.2081 14.4125 28.745 13.1694 28.3306C11.6337 27.8431 10.4394 27.575 10.5369 26.7219C10.5856 26.2831 11.195 25.8444 12.3406 25.3812C19.4581 22.2856 24.1869 20.2381 26.5513 19.2631C33.3275 16.4356 34.7169 15.9481 35.6431 15.9481C35.8381 15.9481 36.3013 15.9969 36.5938 16.2406C36.8375 16.4356 36.9106 16.7037 36.935 16.8988C36.9106 17.045 36.9594 17.4838 36.935 17.825Z" fill="#145AF8"/>
</svg>
