<svg width="13" height="13" viewBox="0 0 13 13" fill="none" xmlns="http://www.w3.org/2000/svg">
<mask id="path-1-inside-1_34_543" fill="white">
<path d="M6.79999 10.352L2.43649 6.106C2.40132 6.07104 2.35957 6.0434 2.31366 6.02469C2.26774 6.00597 2.21857 5.99654 2.16899 5.99695C2.11941 5.99737 2.0704 6.00761 2.0248 6.02709C1.9792 6.04656 1.93792 6.07489 1.90334 6.11043C1.86876 6.14596 1.84157 6.18801 1.82335 6.23412C1.80512 6.28023 1.79623 6.32951 1.79717 6.37908C1.79812 6.42866 1.80888 6.47755 1.82885 6.52294C1.84881 6.56833 1.87758 6.6093 1.91349 6.6435L6.53849 11.1435C6.60849 11.2116 6.70231 11.2497 6.79999 11.2497C6.89766 11.2497 6.99148 11.2116 7.06149 11.1435L11.6865 6.6435C11.7224 6.6093 11.7512 6.56833 11.7711 6.52294C11.7911 6.47755 11.8019 6.42866 11.8028 6.37908C11.8037 6.32951 11.7949 6.28023 11.7766 6.23412C11.7584 6.18801 11.7312 6.14596 11.6966 6.11043C11.6621 6.07489 11.6208 6.04656 11.5752 6.02708C11.5296 6.00761 11.4806 5.99737 11.431 5.99695C11.3814 5.99654 11.3322 6.00597 11.2863 6.02469C11.2404 6.0434 11.1987 6.07104 11.1635 6.106L6.79999 10.352Z"/>
</mask>
<path d="M6.79999 10.352L2.43649 6.106C2.40132 6.07104 2.35957 6.0434 2.31366 6.02469C2.26774 6.00597 2.21857 5.99654 2.16899 5.99695C2.11941 5.99737 2.0704 6.00761 2.0248 6.02709C1.9792 6.04656 1.93792 6.07489 1.90334 6.11043C1.86876 6.14596 1.84157 6.18801 1.82335 6.23412C1.80512 6.28023 1.79623 6.32951 1.79717 6.37908C1.79812 6.42866 1.80888 6.47755 1.82885 6.52294C1.84881 6.56833 1.87758 6.6093 1.91349 6.6435L6.53849 11.1435C6.60849 11.2116 6.70231 11.2497 6.79999 11.2497C6.89766 11.2497 6.99148 11.2116 7.06149 11.1435L11.6865 6.6435C11.7224 6.6093 11.7512 6.56833 11.7711 6.52294C11.7911 6.47755 11.8019 6.42866 11.8028 6.37908C11.8037 6.32951 11.7949 6.28023 11.7766 6.23412C11.7584 6.18801 11.7312 6.14596 11.6966 6.11043C11.6621 6.07489 11.6208 6.04656 11.5752 6.02708C11.5296 6.00761 11.4806 5.99737 11.431 5.99695C11.3814 5.99654 11.3322 6.00597 11.2863 6.02469C11.2404 6.0434 11.1987 6.07104 11.1635 6.106L6.79999 10.352Z" fill="#353941"/>
<path d="M6.79999 10.352L5.4052 11.7854L6.79999 13.1426L8.19477 11.7854L6.79999 10.352ZM2.43649 6.106L1.02644 7.52437L1.03403 7.53191L1.0417 7.53938L2.43649 6.106ZM1.91349 6.6435L3.3082 5.21005L3.30053 5.20258L3.29277 5.1952L1.91349 6.6435ZM6.53849 11.1435L5.14378 12.5769L5.14382 12.577L6.53849 11.1435ZM7.06149 11.1435L8.45615 12.577L8.4562 12.5769L7.06149 11.1435ZM11.6865 6.6435L10.3072 5.1952L10.2994 5.20258L10.2918 5.21004L11.6865 6.6435ZM11.1635 6.106L12.5583 7.53938L12.5659 7.53191L12.5735 7.52437L11.1635 6.106ZM8.19477 8.91862L3.83127 4.67262L1.0417 7.53938L5.4052 11.7854L8.19477 8.91862ZM3.84653 4.68763C3.62382 4.46623 3.35942 4.29119 3.06862 4.17265L1.5587 7.87672C1.35973 7.79561 1.17882 7.67585 1.02644 7.52437L3.84653 4.68763ZM3.06862 4.17265C2.77783 4.05411 2.46641 3.99442 2.15237 3.99702L2.1856 7.99689C1.97073 7.99867 1.75766 7.95782 1.5587 7.87672L3.06862 4.17265ZM2.15237 3.99702C1.83835 3.99963 1.52796 4.06449 1.23917 4.18785L2.81043 7.86632C2.61284 7.95072 2.40047 7.9951 2.1856 7.99689L2.15237 3.99702ZM1.23917 4.18785C0.950384 4.3112 0.688924 4.49061 0.469922 4.71568L3.33675 7.50517C3.18691 7.65917 3.00802 7.78192 2.81043 7.86632L1.23917 4.18785ZM0.469922 4.71568C0.250927 4.94075 0.0787364 5.20701 -0.0366801 5.49907L3.68338 6.96917C3.60441 7.169 3.48659 7.35118 3.33675 7.50517L0.469922 4.71568ZM-0.0366801 5.49907C-0.152096 5.79113 -0.208444 6.10318 -0.202466 6.41715L3.79681 6.34101C3.8009 6.55583 3.76235 6.76934 3.68338 6.96917L-0.0366801 5.49907ZM-0.202466 6.41715C-0.196488 6.73113 -0.128302 7.0408 -0.00185459 7.32825L3.65955 5.71762C3.74606 5.9143 3.79272 6.12618 3.79681 6.34101L-0.202466 6.41715ZM-0.00185459 7.32825C0.124597 7.61571 0.3068 7.87523 0.5342 8.0918L3.29277 5.1952C3.44836 5.34337 3.57303 5.52094 3.65955 5.71762L-0.00185459 7.32825ZM0.518777 8.07695L5.14378 12.5769L7.9332 9.71005L3.3082 5.21005L0.518777 8.07695ZM5.14382 12.577C5.5872 13.0084 6.18139 13.2497 6.79999 13.2497L6.79999 9.24972C7.22324 9.24972 7.62979 9.41486 7.93315 9.71L5.14382 12.577ZM6.79999 13.2497C7.41859 13.2497 8.01278 13.0084 8.45615 12.577L5.66682 9.71C5.97018 9.41486 6.37673 9.24972 6.79999 9.24972L6.79999 13.2497ZM8.4562 12.5769L13.0812 8.07695L10.2918 5.21004L5.66678 9.71005L8.4562 12.5769ZM13.0658 8.09179C13.2932 7.87522 13.4754 7.6157 13.6018 7.32825L9.94043 5.71762C10.0269 5.52095 10.1516 5.34338 10.3072 5.1952L13.0658 8.09179ZM13.6018 7.32825C13.7283 7.0408 13.7965 6.73113 13.8024 6.41715L9.80317 6.34101C9.80726 6.12619 9.85391 5.9143 9.94043 5.71762L13.6018 7.32825ZM13.8024 6.41715C13.8084 6.10319 13.7521 5.79114 13.6367 5.49907L9.9166 6.96917C9.83763 6.76933 9.79907 6.55582 9.80317 6.34101L13.8024 6.41715ZM13.6367 5.49907C13.5212 5.20702 13.3491 4.94075 13.1301 4.71568L10.2632 7.50517C10.1134 7.35117 9.99556 7.16899 9.9166 6.96917L13.6367 5.49907ZM13.1301 4.71568C12.911 4.4906 12.6496 4.3112 12.3608 4.18785L10.7895 7.86632C10.592 7.78192 10.4131 7.65918 10.2632 7.50517L13.1301 4.71568ZM12.3608 4.18785C12.072 4.06449 11.7616 3.99963 11.4476 3.99702L11.4144 7.99689C11.1995 7.9951 10.9871 7.95072 10.7895 7.86632L12.3608 4.18785ZM11.4476 3.99702C11.1336 3.99441 10.8221 4.05411 10.5314 4.17265L12.0413 7.87672C11.8423 7.95782 11.6292 7.99867 11.4144 7.99689L11.4476 3.99702ZM10.5314 4.17265C10.2406 4.29119 9.97615 4.46622 9.75344 4.68763L12.5735 7.52437C12.4212 7.67586 12.2402 7.79562 12.0413 7.87672L10.5314 4.17265ZM9.7687 4.67262L5.4052 8.91862L8.19477 11.7854L12.5583 7.53938L9.7687 4.67262Z" fill="black" mask="url(#path-1-inside-1_34_543)"/>
</svg>
