<svg width="759" height="298" viewBox="0 0 759 298" fill="none" xmlns="http://www.w3.org/2000/svg">
<path d="M0.5 75.5C51.5 74.5 182 162.5 253 132.5C324 102.5 364 63 357.5 43.5C351 23.9999 306 -2.99999 270 35.5C234 73.9999 253 219.5 510.5 241.5C768 263.5 743 286 743 297" stroke="#5F85DB" stroke-width="30"/>
<path d="M7.74766 67.3601L10.4498 67.8142L9.46209 73.6918L14.6691 74.5668L15.6568 68.6892L18.3589 69.1433L15.9096 83.7189L13.2075 83.2648L14.2349 77.1506L9.02791 76.2756L8.00046 82.3898L5.29834 81.9358L7.74766 67.3601Z" fill="white"/>
<path d="M19.0552 78.7815C19.2718 77.9975 19.622 77.3058 20.1057 76.7063C20.5895 76.1068 21.1577 75.6275 21.8102 75.2683C22.4663 74.8962 23.1805 74.6647 23.9526 74.5737C24.7411 74.4734 25.5338 74.5333 26.3306 74.7534C27.1017 74.9665 27.787 75.3149 28.3865 75.7987C28.9988 76.286 29.4846 76.856 29.8438 77.5085C30.2194 78.1518 30.4609 78.8548 30.5683 79.6176C30.6757 80.3804 30.6228 81.1474 30.4098 81.9185C30.1968 82.6896 29.8484 83.3749 29.3646 83.9744C28.8843 84.561 28.318 85.0339 27.6654 85.3931C27.0129 85.7523 26.2987 85.9838 25.5231 86.0877C24.7603 86.1951 23.9869 86.1405 23.2029 85.9239C22.4189 85.7073 21.7208 85.3554 21.1085 84.868C20.4961 84.3807 20.0022 83.8154 19.6266 83.1722C19.251 82.5289 19.0077 81.8323 18.8967 81.0823C18.7893 80.3195 18.8421 79.5526 19.0552 78.7815ZM23.8334 83.5667C24.2575 83.6839 24.679 83.7104 25.0979 83.6463C25.5296 83.5857 25.9276 83.4467 26.2921 83.2293C26.6565 83.0118 26.969 82.7316 27.2298 82.3886C27.5069 82.0364 27.7059 81.6418 27.8266 81.2048C27.9544 80.7421 27.988 80.2949 27.9275 79.8632C27.8833 79.4222 27.7607 79.0148 27.5597 78.6411C27.3586 78.2674 27.0883 77.9438 26.7489 77.6702C26.4095 77.3966 26.0214 77.1994 25.5844 77.0787C25.1731 76.9651 24.7563 76.9468 24.3339 77.0237C23.915 77.0878 23.5234 77.2286 23.159 77.4461C22.811 77.6543 22.4984 77.9345 22.2213 78.2867C21.9605 78.6297 21.768 79.026 21.6437 79.4759C21.5195 79.9257 21.4794 80.3711 21.5236 80.8121C21.5841 81.2438 21.7149 81.6465 21.916 82.0202C22.1171 82.394 22.3809 82.7158 22.7074 82.9859C23.034 83.2559 23.4093 83.4495 23.8334 83.5667Z" fill="white"/>
<path d="M33.7825 77.1836L38.1115 78.6168C39.3646 79.0316 40.2449 79.6391 40.7525 80.4392C41.2601 81.2393 41.3463 82.1456 41.0111 83.1582C40.8853 83.5379 40.652 83.861 40.311 84.1273C39.97 84.3936 39.5909 84.542 39.1735 84.5724C39.5958 84.9088 39.8834 85.313 40.0361 85.7849C40.2057 86.2484 40.2151 86.7079 40.0642 87.1636C39.9008 87.6573 39.655 88.0815 39.3269 88.4363C39.0156 88.7827 38.6451 89.0533 38.2154 89.2482C37.7984 89.4472 37.3327 89.5599 36.8184 89.5862C36.3209 89.6041 35.8126 89.5271 35.2937 89.3553L30.3002 87.7022L33.7825 77.1836ZM36.7096 82.7875C37.2159 82.9552 37.6292 83.0007 37.9495 82.9241C38.2824 82.8518 38.4992 82.6637 38.5998 82.3599C38.6962 82.0688 38.6323 81.7949 38.4084 81.5381C38.197 81.2856 37.8382 81.0755 37.3319 80.9079L35.5472 80.317L34.9249 82.1967L36.7096 82.7875ZM35.8834 87.0014C36.2631 87.1271 36.6004 87.1264 36.8953 86.9993C37.2028 86.8764 37.4111 86.6504 37.52 86.3213C37.629 85.9922 37.5967 85.6866 37.4233 85.4044C37.2625 85.1265 36.9922 84.9247 36.6125 84.7989L34.3151 84.0384L33.586 86.2408L35.8834 87.0014Z" fill="white"/>
<path d="M41.9189 85.7565C42.2077 84.9677 42.605 84.2896 43.1109 83.7223C43.6214 83.1424 44.1976 82.6932 44.8397 82.3745C45.4942 82.0603 46.1975 81.8847 46.9494 81.8476C47.7013 81.8105 48.4591 81.9318 49.2229 82.2114C49.9741 82.4865 50.5708 82.854 51.0129 83.314C51.4596 83.7616 51.7967 84.3535 52.024 85.0899L52.5328 83.7001L54.8241 84.5389L51.0149 94.9436L48.7236 94.1047L49.2187 92.7525C48.507 93.1451 47.8361 93.3681 47.2061 93.4214C46.5931 93.4667 45.9173 93.3542 45.1786 93.0837C44.4148 92.8041 43.7618 92.416 43.2195 91.9192C42.6818 91.41 42.2684 90.8327 41.9793 90.1873C41.6948 89.5294 41.5403 88.8268 41.5157 88.0795C41.4957 87.3196 41.6301 86.5453 41.9189 85.7565ZM44.4149 86.7342C44.2499 87.1849 44.1738 87.6256 44.1865 88.0562C44.1992 88.4869 44.2866 88.888 44.4487 89.2597C44.6279 89.6235 44.8778 89.9493 45.1984 90.2371C45.5316 90.5294 45.9235 90.7581 46.3743 90.9231C46.825 91.0881 47.2594 91.162 47.6775 91.1447C48.1082 91.1319 48.5054 91.036 48.8691 90.8568C49.2454 90.6822 49.5712 90.4323 49.8464 90.1071C50.1388 89.7739 50.3698 89.3757 50.5394 88.9125C50.7136 88.4367 50.7966 87.9772 50.7884 87.5341C50.7803 87.0909 50.6889 86.6812 50.5143 86.3049C50.3443 85.9161 50.0927 85.5755 49.7596 85.2832C49.4435 84.9829 49.0601 84.7502 48.6094 84.5852C48.1712 84.4248 47.7345 84.3572 47.2993 84.3824C46.8766 84.4123 46.481 84.523 46.1127 84.7148C45.7443 84.9065 45.4117 85.1752 45.1147 85.5208C44.8224 85.8539 44.5891 86.2584 44.4149 86.7342Z" fill="white"/>
<path d="M62.077 89.9278L60.4545 89.2993C60.0815 89.1548 59.736 89.1425 59.4179 89.2623C59.1122 89.387 58.8968 89.611 58.7715 89.9342C58.6463 90.2575 58.6547 90.5681 58.7966 90.8662C58.9509 91.1691 59.2146 91.3927 59.5876 91.5372L61.2101 92.1658L62.077 89.9278ZM57.2709 92.9776C56.6958 92.4689 56.3139 91.8491 56.1252 91.1182C55.9489 90.3922 55.998 89.6748 56.2725 88.9661C56.4603 88.4812 56.7208 88.0674 57.0538 87.7245C57.3992 87.3865 57.7913 87.1309 58.2302 86.9577C58.669 86.7845 59.1398 86.6952 59.6423 86.6897C60.1449 86.6842 60.6511 86.7802 61.1609 86.9777L65.4316 88.6321L61.4292 98.9639L58.9488 98.0031L60.3359 94.4224L59.7391 94.1912L56.17 96.9266L53.1861 95.7707L57.2709 92.9776Z" fill="white"/>
<path d="M72.062 91.2489L74.5315 92.2374L72.6363 96.9722L78.0965 93.6644L81.0859 94.861L74.9386 98.3246L77.1912 105.237L73.979 103.951L72.3092 97.7891L70.414 102.524L67.9445 101.535L72.062 91.2489Z" fill="white"/>
<path d="M80.7101 100.705C81.0136 99.9509 81.4395 99.303 81.9877 98.7618C82.5359 98.2206 83.1544 97.8083 83.8433 97.5248C84.5371 97.229 85.2727 97.0794 86.0502 97.0759C86.845 97.065 87.6258 97.2138 88.3928 97.5223C89.135 97.8208 89.7767 98.2442 90.3179 98.7924C90.8715 99.3456 91.29 99.9666 91.5734 100.655C91.8742 101.337 92.035 102.063 92.0558 102.833C92.0767 103.603 91.9378 104.359 91.6393 105.101C91.3408 105.843 90.9174 106.485 90.3692 107.026C89.826 107.555 89.2099 107.961 88.5211 108.245C87.8322 108.528 87.0966 108.678 86.3142 108.694C85.5441 108.714 84.7818 108.573 84.0272 108.27C83.2726 107.966 82.6185 107.538 82.065 106.985C81.5114 106.431 81.0842 105.814 80.7835 105.133C80.4827 104.451 80.3194 103.732 80.2936 102.974C80.2728 102.204 80.4116 101.448 80.7101 100.705ZM84.9191 105.998C85.3274 106.163 85.7432 106.236 86.1666 106.22C86.6024 106.208 87.0136 106.115 87.4001 105.94C87.7867 105.765 88.1289 105.522 88.4266 105.21C88.7416 104.891 88.9837 104.522 89.1529 104.101C89.332 103.656 89.4158 103.215 89.4042 102.779C89.41 102.336 89.334 101.918 89.1763 101.524C89.0186 101.13 88.7865 100.778 88.4801 100.468C88.1737 100.158 87.8101 99.9179 87.3896 99.7488C86.9937 99.5895 86.5816 99.5244 86.1532 99.5533C85.7298 99.5698 85.3248 99.6656 84.9382 99.8407C84.569 100.008 84.2268 100.252 83.9118 100.57C83.6141 100.882 83.3782 101.254 83.204 101.687C83.0299 102.12 82.9399 102.558 82.9341 103.001C82.9457 103.437 83.0303 103.852 83.188 104.246C83.3458 104.64 83.5717 104.989 83.8657 105.294C84.1598 105.599 84.5109 105.834 84.9191 105.998Z" fill="white"/>
<path d="M99.258 102.159L101.19 102.929L101.385 114.932L98.7463 113.881L98.8484 106L93.5062 111.795L90.8676 110.745L99.258 102.159Z" fill="white"/>
<path d="M109.64 106.265L111.578 107.02L111.86 119.022L109.214 117.991L109.258 110.109L103.958 115.943L101.312 114.912L109.64 106.265Z" fill="white"/>
<path d="M124.58 120.321C124.247 120.751 123.841 121.112 123.362 121.402C122.888 121.679 122.376 121.885 121.826 122.021C121.281 122.144 120.716 122.188 120.131 122.153C119.546 122.118 118.966 121.993 118.392 121.777C117.606 121.482 116.921 121.068 116.338 120.535C115.755 120.003 115.299 119.397 114.97 118.718C114.653 118.044 114.474 117.328 114.43 116.571C114.392 115.802 114.516 115.036 114.802 114.275C115.088 113.514 115.493 112.854 116.016 112.295C116.556 111.729 117.161 111.294 117.831 110.991C118.518 110.679 119.243 110.51 120.008 110.484C120.79 110.45 121.562 110.576 122.323 110.863C123.097 111.153 123.754 111.564 124.295 112.095C124.854 112.618 125.276 113.219 125.563 113.896C125.854 114.561 126.002 115.286 126.006 116.071C126.028 116.848 125.886 117.642 125.581 118.454C125.506 118.653 125.436 118.82 125.372 118.952C125.313 119.072 125.232 119.213 125.128 119.373L117.097 116.355C117.007 117.048 117.144 117.669 117.508 118.219C117.883 118.773 118.446 119.191 119.194 119.472C119.719 119.669 120.177 119.756 120.571 119.733C120.969 119.697 121.4 119.553 121.865 119.301L124.58 120.321ZM123.593 116.296C123.684 115.561 123.551 114.928 123.196 114.395C122.841 113.863 122.276 113.451 121.502 113.161C120.753 112.879 120.07 112.822 119.452 112.988C118.834 113.155 118.298 113.538 117.845 114.137L123.593 116.296Z" fill="white"/>
<path d="M130.567 114.213L133.073 115.105L131.365 119.91L136.691 116.391L139.725 117.47L133.718 121.171L136.239 127.99L132.979 126.831L131.07 120.739L129.361 125.544L126.855 124.653L130.567 114.213Z" fill="white"/>
<path d="M140.646 117.812L143.171 118.648L140.448 126.869L144.682 128.271L147.405 120.051L149.93 120.887L147.207 129.108L149.22 129.774L147.629 134.578L145.806 133.974L146.105 131.292L137.162 128.33L140.646 117.812Z" fill="white"/>
<path d="M154.155 122.265L156.686 123.017L154.6 130.033L161.44 124.43L164.028 125.199L160.872 135.82L158.341 135.068L160.427 128.051L153.587 133.655L150.999 132.885L154.155 122.265Z" fill="white"/>
<path d="M171.197 129.625L169.513 129.187C169.126 129.086 168.781 129.113 168.479 129.269C168.189 129.428 168.001 129.675 167.914 130.01C167.826 130.346 167.87 130.654 168.046 130.933C168.234 131.216 168.521 131.408 168.908 131.509L170.592 131.947L171.197 129.625ZM166.772 133.206C166.143 132.766 165.692 132.195 165.421 131.49C165.162 130.789 165.129 130.071 165.32 129.335C165.451 128.832 165.662 128.391 165.954 128.012C166.258 127.637 166.618 127.338 167.035 127.116C167.451 126.893 167.908 126.75 168.407 126.687C168.905 126.624 169.419 126.662 169.948 126.799L174.381 127.953L171.59 138.676L169.016 138.006L169.983 134.289L169.363 134.128L166.132 137.255L163.035 136.449L166.772 133.206Z" fill="white"/>
<path d="M182.897 126.178L185.88 126.763C187.79 127.138 189.135 127.728 189.915 128.533C190.697 129.325 190.957 130.388 190.695 131.723C190.559 132.416 190.326 132.948 189.995 133.318C189.68 133.677 189.199 133.95 188.551 134.135C189.358 134.66 189.896 135.242 190.165 135.879C190.448 136.518 190.499 137.296 190.319 138.212C190.047 139.599 189.354 140.57 188.239 141.126C187.138 141.684 185.698 141.789 183.918 141.44L180.052 140.682L182.897 126.178ZM184.579 138.9C185.521 139.085 186.23 139.074 186.705 138.868C187.193 138.665 187.5 138.243 187.626 137.602C187.739 137.026 187.659 136.535 187.385 136.128C187.112 135.721 186.687 135.461 186.112 135.348L183.972 134.929L183.245 138.638L184.579 138.9ZM186.215 132.638C186.673 132.727 187.052 132.666 187.352 132.453C187.668 132.23 187.871 131.889 187.96 131.431C188.153 130.45 187.556 129.823 186.169 129.551L185.07 129.335L184.488 132.299L186.215 132.638Z" fill="white"/>
<path d="M199.241 142.901C198.672 143.321 198.136 143.597 197.634 143.73C197.146 143.851 196.572 143.867 195.911 143.776C194.524 143.586 193.542 142.993 192.966 141.999C192.389 141.005 192.222 139.622 192.465 137.852L193.273 131.967L195.908 132.329L195.171 137.699C195.002 138.927 195.039 139.834 195.282 140.419C195.54 140.993 196.038 141.331 196.778 141.432C197.65 141.552 198.309 141.36 198.755 140.856C199.201 140.352 199.515 139.439 199.696 138.118L200.406 132.947L203.041 133.309L201.534 144.286L199.097 143.951L199.241 142.901Z" fill="white"/>
<path d="M205.269 133.506L207.701 133.7L207.615 134.777C207.822 134.526 208.013 134.32 208.186 134.16C208.359 134 208.549 133.881 208.756 133.804C208.964 133.714 209.189 133.658 209.431 133.638C209.687 133.618 209.981 133.621 210.313 133.648L210.11 136.2C208.528 136.073 207.668 136.881 207.529 138.622L207.038 144.762L204.386 144.55L205.269 133.506Z" fill="white"/>
<path d="M212.217 136.439L210.917 136.397L210.995 133.979L212.294 134.02L212.413 130.322L215.072 130.408L214.953 134.106L216.552 134.157L216.475 136.576L214.875 136.525L214.597 145.18L211.939 145.095L212.217 136.439Z" fill="white"/>
<path d="M218.864 139.871C218.821 139.059 218.935 138.292 219.204 137.57C219.473 136.848 219.86 136.214 220.365 135.666C220.87 135.106 221.474 134.66 222.177 134.329C222.893 133.984 223.664 133.79 224.49 133.747C225.289 133.705 226.049 133.818 226.771 134.087C227.506 134.355 228.147 134.742 228.695 135.247C229.255 135.739 229.706 136.329 230.05 137.019C230.393 137.708 230.586 138.452 230.628 139.251C230.67 140.05 230.557 140.81 230.288 141.532C230.018 142.241 229.63 142.869 229.125 143.416C228.62 143.963 228.016 144.409 227.313 144.753C226.623 145.097 225.872 145.29 225.06 145.333C224.248 145.375 223.474 145.263 222.739 144.994C222.004 144.726 221.357 144.346 220.797 143.855C220.237 143.364 219.785 142.78 219.443 142.104C219.099 141.414 218.906 140.67 218.864 139.871ZM224.912 142.897C225.351 142.874 225.759 142.766 226.136 142.572C226.527 142.378 226.86 142.12 227.137 141.798C227.414 141.477 227.622 141.112 227.76 140.704C227.912 140.282 227.976 139.845 227.952 139.392C227.926 138.913 227.817 138.478 227.623 138.088C227.441 137.683 227.196 137.336 226.887 137.045C226.578 136.754 226.219 136.533 225.81 136.381C225.402 136.229 224.971 136.165 224.518 136.189C224.092 136.211 223.691 136.326 223.315 136.532C222.938 136.726 222.611 136.983 222.334 137.305C222.07 137.613 221.862 137.977 221.711 138.399C221.572 138.807 221.515 139.244 221.54 139.71C221.564 140.176 221.667 140.611 221.849 141.016C222.043 141.406 222.294 141.747 222.603 142.037C222.913 142.328 223.265 142.55 223.66 142.703C224.055 142.855 224.473 142.92 224.912 142.897Z" fill="white"/>
<path d="M231.03 133.607L233.451 133.171L233.639 134.214C234.04 133.654 234.452 133.235 234.876 132.955C235.313 132.673 235.846 132.475 236.476 132.362C237.932 132.099 239.072 132.334 239.895 133.067C240.718 133.799 241.295 135.084 241.626 136.921L242.679 142.766L240.062 143.238L239.1 137.904C238.88 136.684 238.559 135.841 238.137 135.375C237.725 134.894 237.145 134.721 236.397 134.855C235.57 135.004 235.019 135.402 234.742 136.048C234.476 136.678 234.458 137.63 234.688 138.903L235.613 144.04L232.995 144.512L231.03 133.607Z" fill="white"/>
<path d="M253.511 138.215L245.853 130.557L248.652 129.37L253.72 135.02L253.384 127.363L256.201 126.168L256.079 142.274L253.446 143.391L253.511 138.215Z" fill="white"/>
<path d="M262.967 129.175L257.036 125.872L259.846 124.562L265.18 127.769L263 123.092L265.411 121.968L267.591 126.645L268.566 120.498L271.375 119.188L270.092 125.855L276.274 129.13L273.337 130.498L267.912 127.334L270.092 132.011L267.681 133.135L265.501 128.458L264.437 134.647L261.5 136.016L262.967 129.175Z" fill="white"/>
<path d="M286.784 120.038C286.881 120.574 286.875 121.116 286.769 121.666C286.657 122.205 286.466 122.723 286.198 123.221C285.924 123.708 285.578 124.156 285.16 124.567C284.742 124.978 284.26 125.324 283.715 125.605C282.969 125.99 282.202 126.221 281.416 126.296C280.63 126.372 279.875 126.304 279.15 126.092C278.438 125.875 277.787 125.528 277.196 125.053C276.6 124.565 276.115 123.96 275.742 123.237C275.369 122.514 275.151 121.772 275.088 121.009C275.03 120.229 275.113 119.488 275.337 118.788C275.566 118.069 275.928 117.418 276.421 116.833C276.92 116.23 277.531 115.743 278.254 115.37C278.989 114.991 279.735 114.778 280.491 114.733C281.254 114.67 281.983 114.759 282.677 115.001C283.366 115.23 284.003 115.607 284.588 116.13C285.179 116.636 285.673 117.273 286.07 118.044C286.168 118.233 286.245 118.396 286.3 118.533C286.349 118.657 286.399 118.812 286.449 118.996L278.824 122.93C279.278 123.461 279.831 123.776 280.482 123.875C281.145 123.968 281.832 123.831 282.543 123.464C283.041 123.207 283.413 122.925 283.659 122.618C283.9 122.299 284.082 121.882 284.207 121.368L286.784 120.038ZM283.137 118.072C282.653 117.511 282.094 117.185 281.461 117.091C280.827 116.998 280.143 117.141 279.409 117.52C278.698 117.886 278.197 118.355 277.906 118.925C277.615 119.495 277.54 120.149 277.68 120.887L283.137 118.072Z" fill="white"/>
<path d="M289.213 109.808L293.158 107.521C294.3 106.859 295.338 106.604 296.274 106.755C297.209 106.907 297.944 107.444 298.479 108.366C298.68 108.712 298.766 109.101 298.739 109.533C298.712 109.965 298.572 110.347 298.317 110.679C298.849 110.587 299.342 110.64 299.797 110.839C300.256 111.02 300.606 111.318 300.847 111.733C301.108 112.183 301.262 112.648 301.309 113.129C301.362 113.592 301.319 114.049 301.179 114.499C301.051 114.943 300.826 115.366 300.505 115.769C300.188 116.153 299.793 116.482 299.32 116.756L294.77 119.394L289.213 109.808ZM295.347 111.338C295.808 111.07 296.117 110.792 296.272 110.501C296.439 110.204 296.442 109.917 296.282 109.64C296.128 109.375 295.881 109.241 295.54 109.238C295.211 109.229 294.815 109.358 294.354 109.625L292.728 110.568L293.721 112.281L295.347 111.338ZM297.951 114.753C298.297 114.552 298.52 114.299 298.621 113.994C298.733 113.683 298.702 113.377 298.528 113.077C298.354 112.777 298.104 112.598 297.778 112.541C297.464 112.477 297.133 112.545 296.787 112.746L294.694 113.959L295.857 115.966L297.951 114.753Z" fill="white"/>
<path d="M302.792 101.762L311.309 96.149L317.407 105.4L315.186 106.864L310.42 99.6334L306.345 102.319L311.111 109.55L308.89 111.014L302.792 101.762Z" fill="white"/>
<path d="M313.576 94.6195L315.537 93.1668L316.311 94.2113C316.352 93.5502 316.54 92.9299 316.874 92.3505C317.218 91.7632 317.696 91.2433 318.307 90.7908C318.949 90.3145 319.626 89.9957 320.336 89.8345C321.049 89.6546 321.759 89.6267 322.465 89.7508C323.163 89.8642 323.829 90.1253 324.464 90.5343C325.102 90.9247 325.671 91.4573 326.171 92.1322C326.671 92.8071 327.023 93.5172 327.227 94.2624C327.422 94.9968 327.477 95.7198 327.39 96.4313C327.314 97.1349 327.09 97.807 326.719 98.4475C326.347 99.088 325.84 99.6464 325.197 100.123C324.65 100.528 324.104 100.808 323.556 100.965C323 101.111 322.379 101.157 321.691 101.103L324.513 104.911L322.376 106.495L313.576 94.6195ZM323.503 98.3409C323.857 98.079 324.137 97.7632 324.345 97.3938C324.552 97.0243 324.681 96.6384 324.731 96.236C324.784 95.815 324.756 95.3961 324.647 94.9795C324.529 94.5521 324.331 94.151 324.053 93.776C323.76 93.3797 323.426 93.0631 323.051 92.8262C322.676 92.5894 322.284 92.4405 321.874 92.3794C321.455 92.3077 321.038 92.3266 320.621 92.4362C320.207 92.5271 319.813 92.7115 319.438 92.9894C319.074 93.2593 318.788 93.5789 318.58 93.9484C318.373 94.3179 318.243 94.7131 318.19 95.1342C318.139 95.5366 318.177 95.9568 318.302 96.3949C318.42 96.8222 318.621 97.2287 318.907 97.6144C319.185 97.9893 319.511 98.2952 319.886 98.532C320.263 98.7502 320.661 98.8952 321.079 98.9669C321.49 99.028 321.907 99.0091 322.332 98.9102C322.748 98.8006 323.139 98.6108 323.503 98.3409Z" fill="white"/>
<path d="M327.301 91.3579C326.774 90.7379 326.399 90.0592 326.176 89.322C325.952 88.5848 325.876 87.8455 325.946 87.1039C326.007 86.3521 326.217 85.6315 326.577 84.9419C326.937 84.2335 327.433 83.6119 328.063 83.0769C328.673 82.5592 329.346 82.1885 330.083 81.965C330.831 81.7329 331.575 81.6518 332.317 81.7219C333.06 81.7732 333.777 81.9689 334.468 82.3092C335.159 82.6495 335.764 83.1246 336.281 83.7345C336.799 84.3443 337.17 85.0179 337.393 85.7551C337.608 86.4821 337.681 87.2164 337.61 87.958C337.54 88.6996 337.33 89.4202 336.98 90.12C336.639 90.8111 336.159 91.4198 335.539 91.9462C334.919 92.4725 334.235 92.8518 333.488 93.0839C332.741 93.3161 331.995 93.4065 331.252 93.3552C330.509 93.304 329.796 93.1133 329.114 92.7832C328.423 92.4429 327.818 91.9678 327.301 91.3579ZM333.945 90.0989C334.28 89.8142 334.539 89.4806 334.722 89.0983C334.915 88.7073 335.024 88.2999 335.049 87.8763C335.074 87.4527 335.018 87.0366 334.881 86.6282C334.746 86.2009 334.532 85.8144 334.238 85.4688C333.928 85.1029 333.577 84.8235 333.186 84.6308C332.796 84.4192 332.391 84.2914 331.968 84.2475C331.546 84.2035 331.127 84.2449 330.71 84.3716C330.293 84.4983 329.911 84.7084 329.566 85.0018C329.24 85.2779 328.991 85.6122 328.817 86.0048C328.634 86.3871 328.53 86.7901 328.505 87.2137C328.481 87.6186 328.537 88.0346 328.673 88.4619C328.809 88.8704 329.029 89.2525 329.331 89.6083C329.633 89.9641 329.979 90.2477 330.368 90.4593C330.759 90.6521 331.166 90.7704 331.588 90.8144C332.01 90.8584 332.424 90.8213 332.831 90.7032C333.238 90.5851 333.609 90.3837 333.945 90.0989Z" fill="white"/>
<path d="M339.562 85.0449L340.75 83.829L337.142 75.1303L338.763 73.471L347.543 76.8769L348.731 75.661L352.35 79.1973L351.023 80.5562L348.743 79.1117L343.026 84.9624L344.523 87.208L343.181 88.5812L339.562 85.0449ZM345.614 78.8509L340.57 76.8585L342.679 81.8549L345.614 78.8509Z" fill="white"/>
<path d="M347.456 72.5908C346.775 72.0993 346.23 71.5333 345.821 70.8927C345.4 70.2444 345.124 69.5681 344.991 68.8638C344.866 68.1486 344.887 67.4241 345.055 66.6902C345.222 65.9563 345.544 65.2596 346.02 64.6C346.488 63.9512 347.003 63.4762 347.566 63.1751C348.118 62.8662 348.779 62.7019 349.549 62.6823L348.349 61.8164L349.777 59.8376L358.762 66.3204L357.334 68.2992L356.167 67.4566C356.352 68.248 356.385 68.9542 356.266 69.5752C356.144 70.1775 355.852 70.7977 355.392 71.4356C354.916 72.0952 354.366 72.6188 353.741 73.0065C353.105 73.3863 352.438 73.6281 351.738 73.7317C351.028 73.8275 350.31 73.7861 349.583 73.6076C348.846 73.4212 348.137 73.0822 347.456 72.5908ZM349.073 70.4525C349.462 70.7333 349.866 70.9259 350.284 71.0301C350.702 71.1344 351.112 71.1588 351.513 71.1034C351.912 71.0293 352.293 70.8769 352.657 70.6461C353.029 70.4046 353.355 70.0891 353.636 69.6999C353.917 69.3106 354.105 68.9124 354.202 68.5052C354.306 68.0872 354.321 67.6788 354.247 67.2801C354.181 66.8706 354.028 66.4894 353.79 66.1364C353.548 65.7648 353.227 65.4347 352.827 65.146C352.416 64.8496 351.997 64.6453 351.568 64.5333C351.139 64.4212 350.72 64.3983 350.31 64.4645C349.89 64.523 349.494 64.673 349.122 64.9146C348.748 65.1376 348.42 65.4437 348.139 65.833C347.866 66.2114 347.683 66.6135 347.589 67.0393C347.504 67.4543 347.503 67.8651 347.588 68.2716C347.673 68.6781 347.842 69.071 348.094 69.4504C348.336 69.822 348.662 70.156 349.073 70.4525Z" fill="white"/>
<path d="M357.37 57.169L351.057 59.6662L351.823 56.6624L357.683 54.5656L352.683 53.2903L353.34 50.7129L358.34 51.9881L354.2 47.3408L354.967 44.337L359.312 49.5528L365.762 46.8428L364.961 49.9823L359.077 52.176L364.077 53.4513L363.419 56.0287L358.419 54.7535L362.534 59.4977L361.734 62.6372L357.37 57.169Z" fill="white"/>
<path d="M354.88 32.117C355.405 31.9753 355.946 31.9339 356.503 31.9928C357.049 32.0588 357.582 32.204 358.101 32.4284C358.609 32.6599 359.086 32.9664 359.531 33.3479C359.976 33.7294 360.362 34.1797 360.689 34.6987C361.137 35.4095 361.432 36.1533 361.574 36.9302C361.717 37.707 361.714 38.4653 361.565 39.205C361.409 39.9334 361.119 40.612 360.696 41.241C360.262 41.877 359.7 42.4118 359.012 42.8451C358.324 43.2785 357.602 43.5594 356.848 43.6877C356.075 43.8119 355.331 43.7925 354.613 43.6295C353.878 43.4624 353.198 43.158 352.573 42.7163C351.93 42.2705 351.392 41.7034 350.958 41.0152C350.518 40.3156 350.242 39.5908 350.133 38.8407C350.004 38.0864 350.031 37.3528 350.212 36.6399C350.382 35.934 350.703 35.2673 351.174 34.6396C351.627 34.0077 352.22 33.4609 352.954 32.999C353.134 32.8854 353.29 32.7951 353.421 32.7282C353.541 32.6685 353.691 32.6058 353.87 32.5402L358.442 39.8006C358.932 39.3029 359.199 38.7253 359.242 38.068C359.278 37.3994 359.082 36.7266 358.656 36.0496C358.358 35.5757 358.045 35.2291 357.718 35.0097C357.379 34.7974 356.948 34.6512 356.425 34.571L354.88 32.117ZM353.233 35.9195C352.716 36.4498 352.438 37.0345 352.399 37.6734C352.36 38.3124 352.561 38.9816 353.002 39.6812C353.428 40.3581 353.938 40.8171 354.531 41.0582C355.124 41.2993 355.781 41.3183 356.504 41.1152L353.233 35.9195Z" fill="white"/>
<path d="M316.054 13.3599C316.485 12.7575 316.986 12.2386 317.558 11.8032C318.114 11.378 318.719 11.0387 319.375 10.7851C320.027 10.5445 320.72 10.4014 321.453 10.3556C322.173 10.307 322.904 10.3633 323.647 10.5243C324.702 10.7531 325.65 11.1633 326.491 11.7548C327.331 12.3462 328.023 13.0556 328.567 13.883C329.098 14.7075 329.466 15.6196 329.672 16.6193C329.863 17.6292 329.845 18.6554 329.619 19.6978C329.399 20.7142 328.995 21.6296 328.41 22.444C327.821 23.2714 327.122 23.9453 326.314 24.4658C325.489 24.9965 324.585 25.3598 323.601 25.5558C322.604 25.749 321.598 25.7354 320.581 25.5151C319.044 25.1818 317.759 24.5007 316.727 23.472C315.694 22.4433 315.017 21.164 314.694 19.6342L317.684 20.2825C318.041 21.0283 318.488 21.6096 319.025 22.0262C319.549 22.44 320.235 22.7387 321.082 22.9223C321.76 23.0692 322.418 23.0824 323.058 22.962C323.698 22.8415 324.282 22.6064 324.808 22.2565C325.331 21.9198 325.781 21.4785 326.159 20.9328C326.52 20.3972 326.776 19.7842 326.926 19.0935C327.073 18.4159 327.087 17.7506 326.97 17.0975C326.839 16.4416 326.6 15.8441 326.253 15.305C325.906 14.7659 325.468 14.3025 324.938 13.9148C324.408 13.5271 323.811 13.2611 323.146 13.1171C322.456 12.9674 321.808 12.9635 321.205 13.1054C320.601 13.2474 319.933 13.5596 319.201 14.0421L316.054 13.3599Z" fill="white"/>
<path d="M312.999 20.3424L310.345 20.5135L310.017 15.424L306.513 20.7604L303.299 20.9675L307.356 15.1947L302.347 9.9259L305.8 9.70338L309.96 14.5459L309.632 9.45642L312.287 9.28536L312.999 20.3424Z" fill="white"/>
<path d="M302.135 21.1754L299.622 21.986L297.375 15.0196L294.902 23.509L292.333 24.3381L288.93 13.7933L291.443 12.9827L293.69 19.9491L296.163 11.4597L298.733 10.6306L302.135 21.1754Z" fill="white"/>
<path d="M286.972 17.1783L285.534 18.086L287.03 27.3838L285.068 28.6225L277.316 23.2755L275.878 24.1831L273.177 19.9046L274.783 18.8902L276.666 20.8235L283.583 16.4562L282.647 13.925L284.27 12.8999L286.972 17.1783ZM279.649 21.8019L284.095 24.9085L283.201 19.5595L279.649 21.8019Z" fill="white"/>
<path d="M279.96 32.1822L278.027 34.0095L274.523 30.3034L275.236 36.6475L272.896 38.8595L272.33 31.8263L265.11 30.9725L267.625 28.5957L273.919 29.6639L270.415 25.9577L272.348 24.1304L279.96 32.1822Z" fill="white"/>
<path d="M271.75 39.895L270.362 42.1409L264.135 38.2935L267.755 46.3606L266.336 48.6575L256.91 42.8338L258.298 40.5879L264.525 44.4353L260.905 36.3683L262.324 34.0713L271.75 39.895Z" fill="white"/>
<path d="M255.854 51.3389L255.453 52.9911L262.999 58.6261L262.453 60.8808L253.165 62.4378L252.765 64.0901L247.847 62.8987L248.294 61.0521L250.992 61.1294L252.918 53.1794L250.484 52.0135L250.936 50.1475L255.854 51.3389ZM253.815 59.7554L259.169 58.8917L254.804 55.6735L253.815 59.7554Z" fill="white"/>
<path d="M255.649 66.2317C256.461 66.2809 257.21 66.4799 257.897 66.8287C258.584 67.1775 259.171 67.6338 259.657 68.1976C260.157 68.7622 260.532 69.4127 260.781 70.1491C261.043 70.8996 261.149 71.6875 261.099 72.5126C261.051 73.3112 260.852 74.0539 260.503 74.7407C260.154 75.4409 259.697 76.0343 259.133 76.5211C258.582 77.0221 257.944 77.4042 257.22 77.6676C256.497 77.931 255.735 78.0385 254.937 77.9902C254.138 77.9418 253.396 77.7432 252.709 77.3944C252.035 77.0464 251.455 76.5905 250.968 76.0267C250.481 75.4629 250.107 74.8124 249.844 74.0752C249.581 73.3513 249.474 72.5834 249.523 71.7716C249.572 70.9597 249.771 70.2037 250.121 69.5036C250.471 68.8034 250.921 68.2029 251.472 67.702C252.024 67.201 252.655 66.8185 253.365 66.5543C254.089 66.2909 254.85 66.1834 255.649 66.2317ZM251.96 71.8991C251.933 72.3383 251.994 72.7561 252.144 73.1525C252.293 73.5623 252.512 73.9228 252.8 74.2341C253.088 74.5455 253.427 74.7931 253.817 74.977C254.219 75.175 254.646 75.2877 255.099 75.3151C255.578 75.3441 256.022 75.2842 256.432 75.1353C256.854 75.0006 257.227 74.7961 257.551 74.5219C257.875 74.2476 258.136 73.9161 258.333 73.5273C258.53 73.1385 258.642 72.7178 258.67 72.2653C258.695 71.8395 258.627 71.4279 258.464 71.0306C258.314 70.6342 258.095 70.2803 257.807 69.969C257.531 69.6718 257.192 69.4242 256.79 69.2262C256.4 69.0423 255.973 68.9362 255.507 68.908C255.041 68.8798 254.597 68.9331 254.175 69.0678C253.765 69.2166 253.398 69.4282 253.074 69.7024C252.751 69.9767 252.49 70.3016 252.294 70.6771C252.098 71.0525 251.986 71.4599 251.96 71.8991Z" fill="white"/>
<path d="M252.151 85.3081L257.789 89.8557C258.439 90.387 259.006 90.7478 259.489 90.9383C259.987 91.1403 260.474 91.2092 260.949 91.1451C261.28 91.1005 261.577 91.0067 261.84 90.8636C262.103 90.7205 262.32 90.5365 262.492 90.3116C262.678 90.0981 262.813 89.8512 262.897 89.5709C262.982 89.3038 263.004 89.0183 262.963 88.7143C262.87 88.0272 262.531 87.5079 261.946 87.1563C261.362 86.8179 260.634 86.7075 259.762 86.825L259.412 84.2285C260.231 84.1181 260.979 84.1315 261.657 84.2689C262.348 84.4045 262.947 84.6534 263.453 85.0157C263.973 85.3762 264.398 85.8368 264.729 86.3976C265.062 86.9716 265.278 87.6286 265.378 88.3686C265.471 89.0557 265.437 89.706 265.278 90.3195C265.118 90.9329 264.849 91.4805 264.47 91.9621C264.106 92.4551 263.649 92.8598 263.1 93.176C262.551 93.4922 261.939 93.6957 261.265 93.7866C260.816 93.8471 260.387 93.8579 259.978 93.8188C259.582 93.778 259.171 93.6719 258.744 93.5007C258.331 93.3278 257.895 93.0905 257.438 92.7889C256.993 92.4856 256.49 92.096 255.928 91.6201L252.809 88.9932L253.586 94.761L251.109 95.095L249.832 85.6207L252.151 85.3081Z" fill="white"/>
<path d="M261.318 95.7356C262.08 95.5404 262.792 95.4748 263.456 95.5389C264.122 95.6159 264.722 95.8064 265.254 96.1106C265.786 96.4147 266.238 96.8357 266.61 97.3737C266.994 97.9083 267.281 98.5437 267.47 99.2799C267.655 100.003 267.707 100.692 267.627 101.345C267.56 101.996 267.372 102.581 267.065 103.1C266.757 103.619 266.335 104.064 265.797 104.436C265.262 104.821 264.633 105.106 263.91 105.291L258.911 106.572C257.31 106.982 255.965 106.893 254.879 106.304C253.792 105.715 253.058 104.678 252.678 103.193C252.284 101.656 252.42 100.334 253.087 99.2272C253.756 98.1335 254.879 97.3848 256.455 96.9812L261.318 95.7356ZM257.192 99.5382C256.301 99.7664 255.666 100.136 255.287 100.645C254.922 101.152 254.833 101.773 255.022 102.51C255.392 103.956 256.475 104.45 258.271 103.99L263.114 102.749C263.941 102.537 264.524 102.182 264.864 101.682C265.207 101.194 265.29 100.602 265.111 99.9047C264.932 99.2072 264.566 98.7162 264.011 98.4316C263.456 98.147 262.779 98.1072 261.978 98.3124L257.192 99.5382Z" fill="white"/>
<path d="M272.155 114.129L272.923 116.041L256.927 115.874L256.167 113.981L272.155 114.129ZM261.13 117.375C261.6 117.186 262.074 117.096 262.552 117.105C263.03 117.114 263.477 117.207 263.893 117.385C264.327 117.57 264.712 117.832 265.05 118.17C265.392 118.521 265.657 118.932 265.846 119.402C266.03 119.86 266.109 120.324 266.083 120.795C266.073 121.272 265.974 121.722 265.784 122.143C265.611 122.572 265.356 122.955 265.017 123.292C264.696 123.637 264.306 123.901 263.848 124.085C263.391 124.269 262.923 124.356 262.445 124.347C261.967 124.338 261.511 124.241 261.078 124.056C260.644 123.871 260.259 123.609 259.922 123.271C259.589 122.944 259.329 122.546 259.14 122.076C258.956 121.618 258.868 121.15 258.877 120.673C258.887 120.195 258.977 119.741 259.15 119.313C259.335 118.879 259.597 118.494 259.936 118.156C260.274 117.819 260.672 117.559 261.13 117.375ZM261.125 121.278C261.279 121.661 261.539 121.931 261.903 122.086C262.284 122.249 262.667 122.253 263.05 122.099C263.434 121.945 263.701 121.68 263.851 121.303C264.019 120.934 264.023 120.551 263.864 120.156C263.715 119.784 263.452 119.524 263.076 119.373C262.712 119.218 262.338 119.217 261.954 119.371C261.571 119.525 261.295 119.787 261.127 120.156C260.977 120.533 260.976 120.907 261.125 121.278ZM265.256 105.974C265.726 105.785 266.2 105.695 266.678 105.704C267.156 105.713 267.603 105.806 268.019 105.984C268.453 106.169 268.838 106.431 269.176 106.769C269.518 107.12 269.784 107.531 269.973 108.001C270.157 108.459 270.235 108.923 270.209 109.394C270.2 109.871 270.1 110.321 269.91 110.742C269.738 111.171 269.482 111.554 269.143 111.891C268.822 112.236 268.432 112.5 267.975 112.684C267.517 112.868 267.049 112.955 266.571 112.946C266.093 112.937 265.638 112.84 265.204 112.655C264.77 112.47 264.385 112.208 264.048 111.87C263.715 111.543 263.455 111.145 263.266 110.675C263.082 110.217 262.994 109.749 263.004 109.272C263.013 108.794 263.104 108.34 263.276 107.912C263.461 107.478 263.723 107.093 264.062 106.755C264.4 106.418 264.799 106.158 265.256 105.974ZM265.252 109.877C265.406 110.26 265.665 110.53 266.029 110.685C266.411 110.848 266.793 110.852 267.177 110.698C267.56 110.544 267.827 110.279 267.978 109.902C268.145 109.533 268.15 109.151 267.991 108.755C267.841 108.383 267.579 108.123 267.202 107.972C266.838 107.817 266.464 107.816 266.08 107.97C265.697 108.125 265.421 108.386 265.253 108.755C265.103 109.132 265.102 109.506 265.252 109.877Z" fill="white"/>
<path d="M287.882 141.334L289.624 143.449L285.024 147.239L288.382 151.314L292.981 147.524L294.724 149.639L283.317 159.037L281.574 156.922L286.359 152.98L283.002 148.905L278.217 152.847L276.475 150.733L287.882 141.334Z" fill="white"/>
<path d="M288.99 157.155C289.573 156.587 290.224 156.167 290.944 155.893C291.665 155.62 292.397 155.493 293.142 155.512C293.896 155.522 294.629 155.682 295.342 155.993C296.073 156.304 296.727 156.756 297.304 157.348C297.862 157.921 298.278 158.568 298.552 159.288C298.834 160.018 298.966 160.755 298.947 161.5C298.947 162.245 298.8 162.973 298.508 163.686C298.216 164.399 297.783 165.034 297.21 165.593C296.637 166.151 295.991 166.567 295.27 166.84C294.56 167.104 293.832 167.227 293.087 167.208C292.343 167.188 291.61 167.028 290.887 166.726C290.175 166.434 289.535 165.997 288.967 165.414C288.399 164.831 287.974 164.175 287.692 163.446C287.409 162.716 287.268 161.978 287.268 161.234C287.268 160.489 287.41 159.765 287.692 159.061C287.985 158.348 288.417 157.713 288.99 157.155ZM290.701 163.697C291.008 164.012 291.358 164.248 291.752 164.404C292.156 164.569 292.569 164.65 292.994 164.646C293.418 164.643 293.829 164.558 294.228 164.394C294.645 164.23 295.015 163.989 295.34 163.673C295.684 163.338 295.939 162.969 296.104 162.566C296.289 162.163 296.388 161.749 296.403 161.325C296.418 160.901 296.348 160.485 296.193 160.078C296.038 159.67 295.803 159.304 295.486 158.979C295.189 158.674 294.838 158.448 294.435 158.301C294.041 158.145 293.631 158.069 293.207 158.073C292.802 158.077 292.39 158.161 291.973 158.325C291.575 158.49 291.209 158.735 290.875 159.06C290.54 159.386 290.281 159.75 290.097 160.153C289.931 160.557 289.841 160.97 289.826 161.394C289.811 161.819 289.876 162.23 290.022 162.627C290.167 163.025 290.394 163.382 290.701 163.697Z" fill="white"/>
<path d="M301.516 161.99L304.905 165.041C305.886 165.924 306.448 166.834 306.592 167.771C306.735 168.707 306.45 169.572 305.737 170.365C305.469 170.662 305.126 170.864 304.707 170.971C304.287 171.078 303.88 171.062 303.486 170.922C303.738 171.4 303.839 171.885 303.789 172.379C303.758 172.871 303.582 173.296 303.261 173.653C302.913 174.039 302.518 174.329 302.075 174.522C301.651 174.714 301.203 174.814 300.731 174.819C300.269 174.834 299.797 174.751 299.316 174.568C298.853 174.385 298.418 174.11 298.012 173.744L294.103 170.225L301.516 161.99ZM301.946 168.298C302.343 168.655 302.703 168.862 303.027 168.921C303.361 168.988 303.635 168.903 303.849 168.665C304.054 168.437 304.106 168.161 304.004 167.836C303.912 167.52 303.667 167.183 303.271 166.826L301.874 165.569L300.549 167.04L301.946 168.298ZM299.497 171.825C299.795 172.093 300.104 172.228 300.425 172.23C300.756 172.241 301.038 172.117 301.269 171.86C301.501 171.602 301.595 171.309 301.549 170.981C301.513 170.662 301.347 170.369 301.05 170.101L299.251 168.482L297.699 170.206L299.497 171.825Z" fill="white"/>
<path d="M306.202 173.727C306.72 173.066 307.307 172.543 307.963 172.16C308.627 171.766 309.314 171.516 310.023 171.411C310.743 171.314 311.466 171.364 312.192 171.56C312.919 171.757 313.603 172.106 314.243 172.608C314.873 173.101 315.327 173.635 315.606 174.209C315.893 174.772 316.031 175.439 316.02 176.21L316.932 175.045L318.853 176.549L312.02 185.272L310.1 183.767L310.988 182.634C310.19 182.787 309.483 182.793 308.867 182.649C308.27 182.503 307.662 182.188 307.042 181.702C306.402 181.201 305.901 180.63 305.538 179.99C305.184 179.34 304.968 178.664 304.892 177.96C304.825 177.247 304.894 176.531 305.102 175.812C305.317 175.083 305.684 174.388 306.202 173.727ZM308.274 175.427C307.978 175.805 307.77 176.201 307.649 176.614C307.529 177.028 307.488 177.436 307.528 177.84C307.586 178.241 307.723 178.628 307.939 179.001C308.166 179.382 308.468 179.72 308.846 180.016C309.224 180.312 309.614 180.516 310.018 180.629C310.431 180.749 310.839 180.781 311.24 180.722C311.652 180.672 312.039 180.535 312.401 180.311C312.782 180.084 313.124 179.776 313.428 179.388C313.741 178.989 313.961 178.578 314.09 178.154C314.219 177.73 314.259 177.312 314.209 176.9C314.167 176.478 314.033 176.076 313.806 175.695C313.598 175.312 313.305 174.973 312.927 174.677C312.56 174.389 312.165 174.19 311.743 174.08C311.332 173.978 310.922 173.961 310.512 174.03C310.103 174.098 309.703 174.251 309.314 174.489C308.933 174.715 308.587 175.028 308.274 175.427Z" fill="white"/>
<path d="M324.29 183.319L322.857 182.332C322.528 182.105 322.194 182.013 321.857 182.056C321.531 182.107 321.269 182.275 321.073 182.56C320.876 182.845 320.812 183.15 320.881 183.472C320.961 183.803 321.166 184.081 321.495 184.308L322.928 185.296L324.29 183.319ZM318.908 185.173C318.467 184.545 318.239 183.854 318.224 183.099C318.221 182.352 318.435 181.665 318.866 181.04C319.161 180.611 319.51 180.269 319.913 180.013C320.328 179.764 320.768 179.606 321.235 179.539C321.702 179.472 322.181 179.494 322.671 179.605C323.161 179.716 323.632 179.927 324.082 180.237L327.853 182.835L321.567 191.96L319.377 190.451L321.555 187.288L321.028 186.925L316.923 188.76L314.288 186.945L318.908 185.173Z" fill="white"/>
<path d="M334.318 187.004L336.612 188.351L334.029 192.748L339.923 190.296L342.699 191.926L336.103 194.43L337.295 201.602L334.311 199.85L333.583 193.507L331 197.905L328.707 196.558L334.318 187.004Z" fill="white"/>
<path d="M340.692 197.214C341.07 196.494 341.559 195.892 342.159 195.409C342.759 194.926 343.416 194.579 344.13 194.366C344.85 194.142 345.597 194.067 346.371 194.142C347.163 194.212 347.925 194.439 348.657 194.823C349.365 195.195 349.961 195.681 350.444 196.281C350.939 196.887 351.292 197.547 351.505 198.261C351.735 198.97 351.822 199.708 351.765 200.476C351.708 201.244 351.493 201.983 351.121 202.691C350.749 203.399 350.263 203.995 349.663 204.478C349.069 204.949 348.416 205.291 347.702 205.504C346.988 205.716 346.241 205.791 345.461 205.727C344.692 205.67 343.948 205.453 343.228 205.075C342.508 204.696 341.901 204.204 341.406 203.598C340.911 202.992 340.548 202.334 340.318 201.626C340.087 200.918 339.998 200.185 340.048 199.429C340.105 198.661 340.32 197.922 340.692 197.214ZM344.345 202.905C344.734 203.11 345.141 203.225 345.564 203.251C345.998 203.284 346.417 203.232 346.819 203.097C347.221 202.962 347.586 202.755 347.914 202.475C348.26 202.19 348.538 201.846 348.749 201.445C348.972 201.02 349.1 200.59 349.132 200.155C349.183 199.715 349.149 199.291 349.032 198.883C348.915 198.475 348.72 198.102 348.446 197.762C348.173 197.423 347.835 197.148 347.434 196.937C347.056 196.738 346.653 196.632 346.223 196.618C345.801 196.591 345.388 196.646 344.986 196.781C344.601 196.91 344.236 197.118 343.891 197.403C343.563 197.683 343.291 198.029 343.074 198.442C342.857 198.856 342.723 199.282 342.673 199.723C342.64 200.157 342.683 200.579 342.8 200.987C342.917 201.394 343.106 201.765 343.368 202.098C343.63 202.432 343.955 202.7 344.345 202.905Z" fill="white"/>
<path d="M358.524 200.063L360.408 200.945L359.895 212.939L357.323 211.735L357.889 203.873L352.215 209.344L349.643 208.139L358.524 200.063Z" fill="white"/>
<path d="M369.27 204.907L371.188 205.713L371.155 217.717L368.536 216.617L368.788 208.739L363.337 214.432L360.719 213.332L369.27 204.907Z" fill="white"/>
<path d="M384.204 219.17C383.872 219.601 383.466 219.961 382.987 220.251C382.512 220.528 382 220.735 381.451 220.87C380.906 220.993 380.341 221.038 379.756 221.003C379.171 220.968 378.591 220.843 378.017 220.628C377.23 220.332 376.546 219.919 375.962 219.386C375.379 218.854 374.923 218.248 374.594 217.569C374.277 216.895 374.097 216.179 374.054 215.422C374.015 214.653 374.139 213.887 374.425 213.126C374.711 212.365 375.115 211.705 375.638 211.146C376.179 210.58 376.784 210.145 377.453 209.841C378.14 209.529 378.866 209.36 379.63 209.334C380.412 209.3 381.184 209.426 381.945 209.712C382.719 210.003 383.377 210.413 383.918 210.944C384.476 211.467 384.899 212.067 385.186 212.745C385.477 213.41 385.625 214.135 385.63 214.92C385.651 215.697 385.509 216.491 385.205 217.303C385.13 217.502 385.06 217.668 384.996 217.801C384.937 217.921 384.856 218.062 384.753 218.222L376.72 215.206C376.631 215.899 376.768 216.52 377.131 217.069C377.507 217.623 378.07 218.041 378.818 218.322C379.343 218.519 379.802 218.606 380.195 218.583C380.593 218.547 381.024 218.403 381.489 218.15L384.204 219.17ZM383.216 215.146C383.307 214.411 383.175 213.777 382.819 213.245C382.463 212.712 381.899 212.301 381.125 212.01C380.376 211.729 379.692 211.672 379.074 211.838C378.456 212.005 377.921 212.388 377.468 212.987L383.216 215.146Z" fill="white"/>
<path d="M387.488 212.081L390.008 212.932L388.375 217.764L393.646 214.161L396.696 215.192L390.748 218.988L393.377 225.766L390.099 224.658L388.094 218.598L386.461 223.429L383.941 222.578L387.488 212.081Z" fill="white"/>
<path d="M399.762 216.217L402.31 216.978L399.834 225.276L404.107 226.552L406.584 218.253L409.133 219.014L406.656 227.312L408.688 227.919L407.241 232.767L405.401 232.218L405.619 229.528L396.593 226.834L399.762 216.217Z" fill="white"/>
<path d="M411.579 219.759L414.131 220.436L412.256 227.511L418.925 221.706L421.535 222.398L418.697 233.108L416.145 232.432L418.02 225.356L411.35 231.161L408.741 230.47L411.579 219.759Z" fill="white"/>
<path d="M431.117 227.207L429.422 226.812C429.033 226.721 428.689 226.757 428.391 226.921C428.106 227.087 427.924 227.339 427.845 227.676C427.766 228.014 427.818 228.32 428 228.596C428.195 228.874 428.488 229.058 428.877 229.149L430.572 229.545L431.117 227.207ZM426.785 230.9C426.144 230.476 425.679 229.916 425.39 229.219C425.114 228.525 425.062 227.807 425.235 227.067C425.353 226.561 425.553 226.115 425.835 225.729C426.13 225.346 426.482 225.038 426.892 224.805C427.303 224.572 427.756 224.418 428.253 224.342C428.75 224.266 429.265 224.29 429.797 224.415L434.257 225.455L431.74 236.245L429.149 235.641L430.022 231.901L429.398 231.756L426.247 234.964L423.131 234.237L426.785 230.9Z" fill="white"/>
<path d="M440.591 223.08L443.572 223.676C445.48 224.058 446.823 224.652 447.6 225.46C448.379 226.255 448.635 227.32 448.369 228.653C448.23 229.346 447.995 229.877 447.663 230.246C447.346 230.604 446.864 230.875 446.216 231.058C447.021 231.586 447.557 232.169 447.824 232.807C448.104 233.448 448.152 234.226 447.969 235.141C447.692 236.527 446.995 237.495 445.879 238.047C444.775 238.602 443.334 238.701 441.556 238.346L437.693 237.573L440.591 223.08ZM442.227 235.808C443.168 235.996 443.877 235.988 444.353 235.784C444.842 235.583 445.15 235.162 445.278 234.521C445.393 233.946 445.315 233.454 445.043 233.046C444.771 232.638 444.347 232.377 443.772 232.262L441.634 231.834L440.893 235.541L442.227 235.808ZM443.886 229.552C444.343 229.643 444.722 229.583 445.023 229.371C445.339 229.149 445.543 228.809 445.635 228.351C445.831 227.371 445.236 226.742 443.85 226.465L442.752 226.245L442.16 229.207L443.886 229.552Z" fill="white"/>
<path d="M458.142 240.372C457.558 240.771 457.013 241.028 456.505 241.142C456.014 241.246 455.439 241.24 454.783 241.126C453.403 240.885 452.444 240.257 451.903 239.242C451.363 238.228 451.247 236.84 451.554 235.08L452.575 229.229L455.196 229.686L454.264 235.025C454.051 236.247 454.055 237.155 454.276 237.748C454.512 238.331 454.999 238.686 455.734 238.815C456.601 238.966 457.266 238.798 457.731 238.31C458.195 237.823 458.541 236.923 458.771 235.609L459.668 230.467L462.288 230.924L460.383 241.839L457.96 241.416L458.142 240.372Z" fill="white"/>
<path d="M465.026 231.362L467.436 231.738L467.27 232.805C467.495 232.571 467.701 232.38 467.885 232.233C468.07 232.087 468.269 231.983 468.481 231.922C468.695 231.847 468.923 231.808 469.167 231.806C469.423 231.806 469.716 231.831 470.045 231.883L469.65 234.412C468.083 234.167 467.164 234.907 466.895 236.633L465.944 242.719L463.316 242.309L465.026 231.362Z" fill="white"/>
<path d="M471.431 234.802L470.144 234.617L470.49 232.221L471.776 232.407L472.305 228.745L474.937 229.125L474.409 232.787L475.993 233.015L475.647 235.411L474.063 235.182L472.827 243.753L470.194 243.374L471.431 234.802Z" fill="white"/>
<path d="M477.461 238.863C477.563 238.056 477.811 237.322 478.204 236.659C478.597 235.997 479.091 235.441 479.685 234.992C480.282 234.53 480.955 234.199 481.707 233.999C482.473 233.787 483.266 233.733 484.086 233.837C484.879 233.938 485.607 234.184 486.27 234.578C486.946 234.972 487.508 235.467 487.957 236.062C488.42 236.645 488.76 237.306 488.975 238.045C489.19 238.785 489.248 239.552 489.147 240.345C489.046 241.139 488.8 241.867 488.406 242.53C488.015 243.179 487.522 243.728 486.927 244.177C486.333 244.625 485.659 244.957 484.906 245.17C484.167 245.385 483.393 245.442 482.587 245.34C481.78 245.237 481.038 244.989 480.363 244.594C479.687 244.199 479.117 243.71 478.654 243.127C478.19 242.544 477.85 241.89 477.633 241.163C477.417 240.424 477.36 239.657 477.461 238.863ZM482.874 242.917C483.31 242.972 483.731 242.938 484.137 242.815C484.555 242.693 484.929 242.499 485.259 242.231C485.589 241.964 485.858 241.642 486.067 241.265C486.291 240.877 486.431 240.458 486.488 240.008C486.549 239.532 486.518 239.085 486.397 238.666C486.29 238.236 486.11 237.85 485.858 237.509C485.605 237.168 485.292 236.886 484.917 236.664C484.542 236.442 484.129 236.302 483.68 236.245C483.256 236.191 482.841 236.233 482.434 236.369C482.029 236.492 481.661 236.688 481.332 236.955C481.017 237.211 480.748 237.533 480.524 237.921C480.315 238.298 480.181 238.718 480.122 239.181C480.063 239.644 480.087 240.09 480.194 240.52C480.316 240.939 480.503 241.319 480.755 241.66C481.007 242.001 481.315 242.282 481.676 242.503C482.038 242.723 482.437 242.861 482.874 242.917Z" fill="white"/>
<path d="M491.115 234.976L493.561 235.239L493.448 236.293C493.99 235.868 494.503 235.581 494.988 235.432C495.487 235.284 496.054 235.244 496.691 235.312C498.162 235.47 499.19 236.016 499.774 236.95C500.358 237.884 500.55 239.279 500.351 241.135L499.718 247.042L497.074 246.758L497.651 241.369C497.783 240.136 497.712 239.237 497.437 238.671C497.177 238.093 496.669 237.764 495.914 237.683C495.079 237.594 494.437 237.82 493.991 238.362C493.558 238.892 493.273 239.801 493.135 241.086L492.579 246.277L489.934 245.993L491.115 234.976Z" fill="white"/>
<path d="M510.648 246.991L507.467 236.639L510.495 236.901L512.329 244.266L515.616 237.343L518.665 237.606L511.017 251.781L508.168 251.535L510.648 246.991Z" fill="white"/>
<path d="M522.757 243.485L519.287 237.65L522.375 237.929L525.377 243.38L525.841 238.241L528.49 238.48L528.027 243.619L531.956 238.792L535.043 239.071L530.586 244.191L534.287 250.127L531.061 249.837L527.958 244.376L527.495 249.515L524.846 249.276L525.309 244.137L521.28 248.955L518.053 248.664L522.757 243.485Z" fill="white"/>
<path d="M547.786 248.105C547.578 248.607 547.28 249.061 546.894 249.467C546.509 249.859 546.068 250.192 545.574 250.467C545.08 250.728 544.547 250.919 543.973 251.038C543.399 251.158 542.807 251.189 542.196 251.131C541.36 251.052 540.59 250.832 539.888 250.471C539.186 250.11 538.587 249.645 538.092 249.075C537.61 248.507 537.249 247.864 537.009 247.145C536.77 246.412 536.689 245.641 536.766 244.831C536.842 244.022 537.06 243.279 537.419 242.603C537.792 241.915 538.262 241.337 538.828 240.868C539.41 240.388 540.066 240.035 540.797 239.809C541.543 239.572 542.32 239.491 543.13 239.568C543.953 239.646 544.695 239.87 545.357 240.241C546.033 240.599 546.598 241.068 547.052 241.647C547.507 242.212 547.84 242.873 548.049 243.63C548.273 244.374 548.345 245.178 548.263 246.041C548.243 246.253 548.219 246.432 548.192 246.576C548.166 246.708 548.125 246.865 548.067 247.047L539.525 246.238C539.621 246.93 539.915 247.494 540.41 247.929C540.918 248.365 541.57 248.621 542.366 248.697C542.924 248.749 543.389 248.713 543.763 248.588C544.138 248.449 544.516 248.197 544.899 247.832L547.786 248.105ZM545.779 244.48C545.674 243.746 545.381 243.169 544.898 242.749C544.416 242.328 543.763 242.079 542.94 242.001C542.144 241.925 541.469 242.049 540.916 242.372C540.363 242.694 539.947 243.204 539.666 243.901L545.779 244.48Z" fill="white"/>
<path d="M557.364 241.202L561.901 241.658C563.214 241.79 564.206 242.192 564.875 242.862C565.545 243.532 565.826 244.398 565.719 245.46C565.679 245.858 565.522 246.224 565.247 246.558C564.972 246.892 564.634 247.119 564.234 247.24C564.719 247.476 565.088 247.808 565.34 248.235C565.606 248.651 565.715 249.097 565.667 249.575C565.615 250.092 565.467 250.56 565.224 250.978C564.996 251.384 564.693 251.728 564.316 252.012C563.953 252.297 563.523 252.508 563.026 252.646C562.545 252.772 562.032 252.807 561.488 252.753L556.254 252.226L557.364 241.202ZM561.44 246.034C561.971 246.087 562.384 246.042 562.68 245.897C562.99 245.754 563.16 245.524 563.192 245.205C563.223 244.9 563.101 244.647 562.826 244.445C562.565 244.244 562.169 244.117 561.639 244.064L559.768 243.876L559.57 245.846L561.44 246.034ZM561.551 250.327C561.949 250.367 562.278 250.293 562.538 250.104C562.812 249.917 562.966 249.652 563.001 249.307C563.035 248.962 562.937 248.67 562.707 248.433C562.489 248.197 562.181 248.058 561.783 248.018L559.376 247.776L559.143 250.084L561.551 250.327Z" fill="white"/>
<path d="M572.802 242.77L582.944 243.856L581.764 254.873L579.119 254.59L580.041 245.979L575.189 245.46L574.267 254.07L571.622 253.787L572.802 242.77Z" fill="white"/>
<path d="M584.622 244.033L587.047 244.306L586.901 245.598C587.382 245.142 587.942 244.816 588.581 244.62C589.234 244.425 589.938 244.37 590.693 244.456C591.488 244.545 592.2 244.773 592.83 245.139C593.474 245.494 594.012 245.957 594.444 246.529C594.878 247.088 595.187 247.733 595.373 248.465C595.574 249.186 595.627 249.963 595.533 250.798C595.438 251.633 595.212 252.392 594.853 253.076C594.496 253.747 594.043 254.313 593.494 254.775C592.959 255.238 592.337 255.577 591.628 255.792C590.92 256.007 590.168 256.07 589.373 255.98C588.697 255.904 588.106 255.737 587.598 255.478C587.092 255.206 586.606 254.816 586.14 254.307L585.609 259.018L582.966 258.719L584.622 244.033ZM589.348 253.522C589.786 253.571 590.206 253.532 590.61 253.403C591.013 253.274 591.371 253.079 591.682 252.819C592.008 252.547 592.272 252.222 592.476 251.842C592.682 251.449 592.81 251.021 592.863 250.557C592.918 250.067 592.889 249.608 592.777 249.179C592.664 248.75 592.478 248.374 592.22 248.049C591.963 247.712 591.644 247.441 591.265 247.237C590.9 247.022 590.486 246.888 590.022 246.835C589.572 246.785 589.144 246.824 588.741 246.953C588.337 247.082 587.972 247.282 587.647 247.554C587.335 247.814 587.076 248.147 586.87 248.553C586.664 248.946 586.535 249.381 586.481 249.858C586.429 250.321 586.459 250.768 586.572 251.196C586.699 251.613 586.891 251.99 587.148 252.328C587.407 252.652 587.725 252.923 588.103 253.14C588.483 253.344 588.898 253.471 589.348 253.522Z" fill="white"/>
<path d="M597.54 251.083C597.636 250.276 597.879 249.539 598.267 248.874C598.656 248.209 599.145 247.65 599.737 247.197C600.33 246.731 601.001 246.395 601.751 246.189C602.515 245.971 603.308 245.912 604.129 246.01C604.923 246.105 605.653 246.347 606.318 246.735C606.997 247.125 607.562 247.616 608.015 248.207C608.483 248.787 608.827 249.446 609.048 250.184C609.268 250.922 609.331 251.688 609.236 252.482C609.141 253.277 608.899 254.007 608.511 254.672C608.124 255.324 607.635 255.876 607.044 256.329C606.452 256.782 605.781 257.118 605.03 257.337C604.292 257.558 603.519 257.62 602.711 257.523C601.904 257.427 601.161 257.183 600.482 256.793C599.804 256.403 599.231 255.918 598.763 255.339C598.295 254.759 597.95 254.107 597.728 253.382C597.507 252.644 597.445 251.878 597.54 251.083ZM602.981 255.098C603.418 255.15 603.839 255.113 604.243 254.987C604.661 254.863 605.034 254.665 605.362 254.396C605.689 254.126 605.956 253.802 606.163 253.424C606.384 253.034 606.521 252.614 606.575 252.164C606.632 251.688 606.598 251.24 606.474 250.823C606.364 250.393 606.182 250.009 605.927 249.669C605.672 249.33 605.356 249.051 604.98 248.831C604.603 248.611 604.19 248.475 603.74 248.421C603.316 248.37 602.901 248.415 602.495 248.554C602.091 248.68 601.724 248.878 601.397 249.148C601.084 249.406 600.817 249.73 600.596 250.119C600.389 250.498 600.258 250.918 600.203 251.382C600.148 251.845 600.175 252.292 600.285 252.721C600.409 253.139 600.599 253.517 600.854 253.857C601.109 254.196 601.418 254.475 601.781 254.693C602.144 254.911 602.544 255.046 602.981 255.098Z" fill="white"/>
<path d="M610.687 255.775L612.373 255.99L617.141 247.869L619.443 248.164L622.015 257.223L623.701 257.438L623.06 262.457L621.175 262.217L620.954 259.527L612.84 258.49L611.95 261.038L610.045 260.794L610.687 255.775ZM619.277 256.873L617.828 251.647L615.111 256.34L619.277 256.873Z" fill="white"/>
<path d="M625.715 254.593C625.829 253.761 626.073 253.014 626.447 252.352C626.823 251.677 627.29 251.115 627.85 250.667C628.423 250.221 629.073 249.9 629.8 249.704C630.526 249.508 631.293 249.466 632.098 249.577C632.891 249.686 633.552 249.918 634.082 250.274C634.614 250.616 635.069 251.123 635.447 251.794L635.649 250.328L638.066 250.661L636.555 261.637L634.138 261.304L634.335 259.878C633.723 260.413 633.114 260.773 632.51 260.959C631.921 261.134 631.236 261.167 630.457 261.06C629.651 260.949 628.931 260.709 628.295 260.339C627.662 259.955 627.135 259.479 626.715 258.91C626.298 258.327 625.997 257.674 625.814 256.949C625.633 256.21 625.6 255.425 625.715 254.593ZM628.362 255.018C628.296 255.493 628.315 255.94 628.419 256.358C628.523 256.776 628.694 257.15 628.931 257.479C629.184 257.796 629.497 258.061 629.872 258.274C630.259 258.489 630.691 258.629 631.166 258.695C631.642 258.76 632.082 258.74 632.487 258.634C632.905 258.53 633.273 258.352 633.59 258.1C633.921 257.849 634.186 257.536 634.386 257.159C634.601 256.772 634.742 256.334 634.809 255.845C634.878 255.343 634.862 254.876 634.759 254.445C634.657 254.014 634.481 253.633 634.23 253.302C633.982 252.958 633.663 252.679 633.276 252.464C632.903 252.238 632.479 252.092 632.003 252.027C631.541 251.963 631.1 251.99 630.68 252.107C630.273 252.226 629.91 252.418 629.591 252.684C629.272 252.949 629.004 253.283 628.787 253.683C628.573 254.071 628.431 254.516 628.362 255.018Z" fill="white"/>
<path d="M642.679 256.88L639.562 250.849L642.627 251.311L645.301 256.931L646.069 251.829L648.699 252.225L647.931 257.327L652.14 252.743L655.206 253.204L650.451 258.05L653.794 264.196L650.59 263.714L647.818 258.079L647.05 263.181L644.419 262.785L645.187 257.683L640.879 262.252L637.675 261.77L642.679 256.88Z" fill="white"/>
<path d="M666.079 262.911C665.836 263.398 665.507 263.83 665.093 264.207C664.681 264.571 664.219 264.872 663.706 265.111C663.195 265.337 662.649 265.49 662.068 265.569C661.488 265.648 660.895 265.637 660.29 265.536C659.461 265.398 658.709 265.125 658.034 264.715C657.359 264.305 656.794 263.799 656.34 263.196C655.899 262.596 655.585 261.929 655.396 261.194C655.209 260.447 655.183 259.672 655.316 258.87C655.45 258.067 655.719 257.342 656.125 256.693C656.545 256.033 657.055 255.489 657.653 255.062C658.267 254.623 658.946 254.317 659.691 254.144C660.452 253.959 661.233 253.934 662.036 254.067C662.851 254.203 663.576 254.479 664.209 254.895C664.858 255.301 665.389 255.808 665.801 256.417C666.215 257.013 666.501 257.696 666.656 258.465C666.828 259.224 666.842 260.03 666.7 260.885C666.665 261.096 666.629 261.272 666.592 261.415C666.556 261.544 666.504 261.698 666.434 261.875L657.97 260.467C658.016 261.164 658.271 261.747 658.733 262.216C659.209 262.687 659.842 262.988 660.631 263.12C661.183 263.212 661.65 263.208 662.032 263.109C662.415 262.997 662.811 262.773 663.218 262.435L666.079 262.911ZM664.332 259.153C664.279 258.415 664.027 257.818 663.575 257.365C663.124 256.911 662.49 256.617 661.675 256.481C660.885 256.35 660.204 256.425 659.63 256.708C659.055 256.991 658.604 257.47 658.275 258.146L664.332 259.153Z" fill="white"/>
</svg>
