<svg width="115" height="33" viewBox="0 0 115 33" fill="none" xmlns="http://www.w3.org/2000/svg">
<path d="M26.469 20.784H26.685C27.069 20.992 27.509 21.176 28.005 21.336C28.517 21.496 29.069 21.624 29.661 21.72C30.269 21.816 30.909 21.864 31.581 21.864C32.333 21.864 32.997 21.792 33.573 21.648C34.149 21.504 34.597 21.272 34.917 20.952C35.237 20.632 35.397 20.184 35.397 19.608C35.397 18.904 35.189 18.4 34.773 18.096C34.357 17.792 33.725 17.56 32.877 17.4L30.885 17.04C29.989 16.896 29.189 16.632 28.485 16.248C27.781 15.848 27.221 15.312 26.805 14.64C26.405 13.952 26.205 13.096 26.205 12.072C26.205 10.808 26.501 9.76 27.093 8.928C27.701 8.08 28.557 7.456 29.661 7.056C30.765 6.64 32.093 6.432 33.645 6.432C34.349 6.432 35.045 6.496 35.733 6.624C36.421 6.752 36.989 6.92 37.437 7.128V9.672H37.245C36.829 9.464 36.309 9.28 35.685 9.12C35.061 8.944 34.333 8.856 33.501 8.856C32.621 8.856 31.837 8.96 31.149 9.168C30.461 9.376 29.917 9.712 29.517 10.176C29.133 10.624 28.941 11.216 28.941 11.952C28.941 12.864 29.189 13.512 29.685 13.896C30.197 14.264 30.917 14.528 31.845 14.688L33.813 15.048C34.661 15.192 35.405 15.44 36.045 15.792C36.701 16.144 37.213 16.624 37.581 17.232C37.949 17.84 38.133 18.6 38.133 19.512C38.133 20.328 37.973 21.04 37.653 21.648C37.333 22.24 36.877 22.736 36.285 23.136C35.709 23.52 35.021 23.808 34.221 24C33.437 24.192 32.557 24.288 31.581 24.288C30.909 24.288 30.261 24.248 29.637 24.168C29.013 24.088 28.429 23.984 27.885 23.856C27.357 23.712 26.885 23.56 26.469 23.4V20.784ZM44.1733 24H41.4853V9.864C41.4853 9.544 41.4773 9.128 41.4613 8.616C41.4613 8.104 41.4453 7.608 41.4133 7.128C41.3973 6.632 41.3573 6.24 41.2933 5.952L41.3413 5.76H44.1733V24ZM43.7893 17.16L49.5493 10.92H52.5253V11.208C52.3653 11.336 52.1813 11.504 51.9733 11.712C51.7653 11.92 51.5493 12.144 51.3253 12.384C51.1013 12.608 50.8773 12.832 50.6533 13.056L46.0453 17.856L46.0693 16.2L50.7013 21.6C51.0213 21.968 51.3653 22.368 51.7333 22.8C52.1173 23.216 52.4133 23.52 52.6213 23.712V24H49.5013L43.7893 17.16ZM56.2824 8.712C55.8344 8.712 55.4504 8.568 55.1304 8.28C54.8104 7.992 54.6504 7.6 54.6504 7.104C54.6504 6.608 54.8104 6.216 55.1304 5.928C55.4504 5.64 55.8344 5.496 56.2824 5.496C56.7624 5.496 57.1544 5.64 57.4584 5.928C57.7624 6.216 57.9144 6.608 57.9144 7.104C57.9144 7.6 57.7624 7.992 57.4584 8.28C57.1544 8.568 56.7624 8.712 56.2824 8.712ZM54.9384 24V15.024C54.9384 14.704 54.9304 14.296 54.9144 13.8C54.9144 13.288 54.8984 12.784 54.8664 12.288C54.8504 11.792 54.8104 11.4 54.7464 11.112L54.7944 10.92H57.6264V24H54.9384Z" fill="#5F85DB"/>
<path d="M61.1045 15.384C61.1045 13.592 61.4565 12.032 62.1605 10.704C62.8805 9.36 63.9205 8.312 65.2805 7.56C66.6565 6.808 68.3125 6.432 70.2485 6.432C71.1285 6.432 71.9045 6.504 72.5765 6.648C73.2645 6.776 73.8325 6.952 74.2805 7.176V9.72H74.0645C73.6485 9.512 73.1125 9.328 72.4565 9.168C71.8165 8.992 71.0965 8.904 70.2965 8.904C68.3125 8.904 66.7605 9.432 65.6405 10.488C64.5205 11.544 63.9605 13.176 63.9605 15.384C63.9605 16.872 64.2005 18.096 64.6805 19.056C65.1765 20.016 65.8725 20.736 66.7685 21.216C67.6645 21.68 68.7285 21.912 69.9605 21.912C70.4405 21.912 70.8885 21.872 71.3045 21.792C71.7205 21.696 72.1125 21.576 72.4805 21.432L71.8805 22.776V15.24H74.5685V23.328C74.0245 23.616 73.3445 23.848 72.5285 24.024C71.7285 24.2 70.8645 24.288 69.9365 24.288C67.9685 24.288 66.3285 23.92 65.0165 23.184C63.7045 22.432 62.7205 21.392 62.0645 20.064C61.4245 18.72 61.1045 17.16 61.1045 15.384ZM85.5099 24.216C84.3099 24.216 83.2459 24.072 82.3179 23.784C81.4059 23.496 80.6379 23.072 80.0139 22.512C79.3899 21.936 78.9179 21.224 78.5979 20.376C78.2939 19.528 78.1419 18.544 78.1419 17.424C78.1419 16.032 78.3979 14.832 78.9099 13.824C79.4219 12.8 80.1419 12.016 81.0699 11.472C81.9979 10.912 83.0939 10.632 84.3579 10.632C85.7819 10.632 86.9339 10.928 87.8139 11.52C88.6939 12.096 89.3259 12.912 89.7099 13.968C90.1099 15.008 90.2779 16.216 90.2139 17.592L90.1899 18.312H79.9419V16.344H87.5019V16.152C87.5019 15.048 87.2379 14.216 86.7099 13.656C86.1819 13.08 85.3899 12.792 84.3339 12.792C83.7099 12.792 83.1339 12.928 82.6059 13.2C82.0779 13.472 81.6539 13.936 81.3339 14.592C81.0299 15.232 80.8779 16.104 80.8779 17.208V17.52C80.8779 18.656 81.0779 19.552 81.4779 20.208C81.8939 20.848 82.4619 21.304 83.1819 21.576C83.9179 21.848 84.7499 21.984 85.6779 21.984C86.4779 21.984 87.1659 21.912 87.7419 21.768C88.3339 21.608 88.7979 21.432 89.1339 21.24H89.3499V23.52C88.9339 23.712 88.4059 23.872 87.7659 24C87.1419 24.144 86.3899 24.216 85.5099 24.216ZM98.1525 24.288C96.2325 24.288 94.7845 23.952 93.8085 23.28C92.8325 22.608 92.3445 21.56 92.3445 20.136C92.3445 19.208 92.5765 18.44 93.0405 17.832C93.5045 17.224 94.1605 16.768 95.0085 16.464C95.8565 16.16 96.8485 16.008 97.9845 16.008C98.8005 16.008 99.4885 16.08 100.048 16.224C100.608 16.352 101.104 16.48 101.536 16.608V18.504C101.152 18.376 100.664 18.264 100.072 18.168C99.4965 18.056 98.9525 18 98.4405 18C97.2565 18 96.3685 18.16 95.7765 18.48C95.2005 18.784 94.9125 19.336 94.9125 20.136C94.9125 20.888 95.1925 21.432 95.7525 21.768C96.3125 22.088 97.1205 22.248 98.1765 22.248C98.7845 22.248 99.3685 22.2 99.9285 22.104C100.488 21.992 101.008 21.832 101.488 21.624L101.032 22.416C100.984 22.256 100.944 22.088 100.912 21.912C100.88 21.736 100.848 21.56 100.816 21.384C100.8 21.192 100.784 20.984 100.768 20.76C100.768 20.536 100.768 20.28 100.768 19.992V16.104C100.768 15.176 100.632 14.48 100.36 14.016C100.104 13.536 99.7125 13.224 99.1845 13.08C98.6565 12.92 97.9925 12.84 97.1925 12.84C96.5525 12.84 95.9125 12.92 95.2725 13.08C94.6325 13.224 94.1205 13.384 93.7365 13.56H93.5205V11.304C94.0965 11.08 94.7365 10.912 95.4405 10.8C96.1605 10.688 96.8565 10.632 97.5285 10.632C98.3765 10.632 99.1525 10.704 99.8565 10.848C100.576 10.992 101.2 11.264 101.728 11.664C102.272 12.048 102.688 12.6 102.976 13.32C103.28 14.024 103.432 14.952 103.432 16.104V19.2C103.432 19.52 103.432 19.936 103.432 20.448C103.448 20.96 103.472 21.464 103.504 21.96C103.536 22.44 103.584 22.824 103.648 23.112L103.576 23.304C103.048 23.496 102.464 23.672 101.824 23.832C101.184 23.976 100.544 24.088 99.9045 24.168C99.2645 24.248 98.6805 24.288 98.1525 24.288ZM107.602 24V15.696C107.602 15.376 107.594 14.96 107.578 14.448C107.578 13.936 107.562 13.44 107.53 12.96C107.514 12.464 107.474 12.072 107.41 11.784L107.458 11.592C107.89 11.432 108.41 11.296 109.018 11.184C109.626 11.056 110.25 10.96 110.89 10.896C111.53 10.816 112.106 10.776 112.618 10.776C112.97 10.776 113.282 10.784 113.554 10.8C113.842 10.816 114.098 10.848 114.322 10.896V13.152H114.13C113.906 13.104 113.642 13.072 113.338 13.056C113.05 13.04 112.778 13.032 112.522 13.032C112.026 13.032 111.514 13.072 110.986 13.152C110.458 13.232 110.002 13.32 109.618 13.416L110.098 12.744C110.226 13.224 110.29 13.912 110.29 14.808V24H107.602Z" fill="#353941"/>
<path d="M17.7887 2.72179L17.7348 2.74031L22.4031 10.0668C22.5418 9.82843 22.6835 9.58402 22.8341 9.33652L18.5308 2.5748C18.272 2.5956 18.0225 2.64332 17.7887 2.72179ZM16.9996 3.16988C16.7453 3.39287 16.5384 3.68127 16.4013 4.041C13.0884 12.5655 11.7275 15.3466 7.04882 23.2077C5.03031 26.5914 13.0439 30.5016 14.4697 26.8302C17.2893 19.5837 18.6906 16.4826 21.9208 10.896L21.0479 9.52569L18.6446 11.8728L17.1926 13.2955L16.885 13.5971L16.1077 14.3562L15.5077 13.7499L16.3028 12.9696C15.8672 12.4472 15.5493 11.8441 15.4291 11.2032C15.2881 10.4289 15.4676 9.59453 16.0839 8.93597L16.0928 8.93289L16.0958 8.92686C16.3395 8.68746 16.6109 8.51381 16.8949 8.40606C16.9263 8.39525 16.9532 8.38599 16.9831 8.3707C17.4361 8.2148 17.916 8.19517 18.3716 8.29429C19.015 8.42911 19.6229 8.7668 20.1388 9.2164L20.5787 8.78908L16.9996 3.16988ZM19.5749 2.62038L23.3215 8.50757C23.4869 8.22993 23.6477 7.95383 23.8234 7.66258C25.1404 5.45349 22.1821 3.0237 19.5749 2.62038ZM17.213 9.18462C17.0366 9.25534 16.8652 9.36951 16.7002 9.53163C16.2726 9.99484 16.1679 10.4924 16.2738 11.048C16.3545 11.4868 16.5885 11.9481 16.9197 12.371L18.2558 11.0634L19.5235 9.81944C19.1091 9.47538 18.6356 9.22191 18.1921 9.12867C17.8613 9.05685 17.5568 9.06128 17.2713 9.16456L17.213 9.18462ZM14.0497 16.73L14.8968 16.8298L14.7767 17.9097L14.4397 20.9254L14.0515 24.3753L13.2044 24.2754L13.3257 23.1701C12.6538 23.04 12.0136 22.7687 11.5114 22.3444C10.9034 21.8312 10.5089 21.0639 10.6112 20.1657L10.6082 20.1568L10.6096 20.1463C10.7495 19.2552 11.3013 18.5988 11.9939 18.2351C12.1268 18.1693 12.2612 18.108 12.4047 18.0586L12.5438 18.0107C12.9791 17.876 13.4526 17.8234 13.9283 17.8353L14.0497 16.73ZM12.6886 18.869C12.5854 18.9045 12.4838 18.9445 12.3913 18.9964C11.8927 19.2532 11.5604 19.6435 11.4584 20.2656C11.3938 20.8798 11.6261 21.3217 12.0587 21.6895C12.4096 21.9802 12.8963 22.1991 13.4225 22.314L13.627 20.5027L13.8316 18.6914C13.464 18.6875 13.1134 18.7328 12.7963 18.8319L12.6886 18.869Z" fill="#5F85DB"/>
</svg>
