<svg width="110" height="110" viewBox="0 0 110 110" fill="none" xmlns="http://www.w3.org/2000/svg">
<path d="M22.9167 77.9167C22.9167 80.3478 23.8825 82.6794 25.6016 84.3985C27.3207 86.1176 29.6523 87.0833 32.0834 87.0833C34.5146 87.0833 36.8461 86.1176 38.5652 84.3985C40.2843 82.6794 41.2501 80.3478 41.2501 77.9167C41.2501 75.4855 40.2843 73.1539 38.5652 71.4349C36.8461 69.7158 34.5146 68.75 32.0834 68.75C29.6523 68.75 27.3207 69.7158 25.6016 71.4349C23.8825 73.1539 22.9167 75.4855 22.9167 77.9167ZM68.7501 77.9167C68.7501 80.3478 69.7159 82.6794 71.4349 84.3985C73.154 86.1176 75.4856 87.0833 77.9167 87.0833C80.3479 87.0833 82.6795 86.1176 84.3986 84.3985C86.1176 82.6794 87.0834 80.3478 87.0834 77.9167C87.0834 75.4855 86.1176 73.1539 84.3986 71.4349C82.6795 69.7158 80.3479 68.75 77.9167 68.75C75.4856 68.75 73.154 69.7158 71.4349 71.4349C69.7159 73.1539 68.7501 75.4855 68.7501 77.9167Z" stroke="white" stroke-width="9.16667" stroke-linecap="round" stroke-linejoin="round"/>
<path d="M22.9167 77.9167H13.7501V59.5834M9.16675 22.9167H59.5834V77.9167M41.2501 77.9167H68.7501M87.0834 77.9167H96.2501V50.4167M96.2501 50.4167H59.5834M96.2501 50.4167L82.5001 27.5001H59.5834M13.7501 41.2501H32.0834" stroke="white" stroke-width="9.16667" stroke-linecap="round" stroke-linejoin="round"/>
</svg>
