<svg width="110" height="110" viewBox="0 0 110 110" fill="none" xmlns="http://www.w3.org/2000/svg">
<path fill-rule="evenodd" clip-rule="evenodd" d="M52.4242 13.1862C51.8054 13.9012 51.0217 14.992 49.8208 16.6741L49.1288 17.6549C49.0738 17.7237 49.0233 17.8016 48.9683 17.8841C48.3908 18.7045 47.5842 19.8458 46.3696 20.5608C45.155 21.2758 43.7663 21.4224 42.7671 21.5233L42.4921 21.5554L41.2958 21.6929C39.8526 21.826 38.4154 22.0172 36.9875 22.2658C37.4871 23.0999 38.2938 24.2137 39.5542 25.9233L40.2692 26.9041L40.4388 27.1333C41.0483 27.9537 41.8733 29.0629 42.1804 30.4241C42.4921 31.7899 42.2263 33.1512 42.0292 34.1458L41.9742 34.4208L41.745 35.6033C41.3417 37.7208 41.0896 39.0729 41.0071 40.0308C41.9375 39.8291 43.23 39.4166 45.2467 38.7566L46.3925 38.3854L46.6538 38.2983C47.6071 37.9774 48.9271 37.542 50.3296 37.6841C51.7183 37.8308 52.9238 38.5229 53.8083 39.0316L54.0513 39.1691L55.1054 39.7649C56.9113 40.7916 58.0983 41.4608 58.9738 41.8549C59.0471 40.9016 59.0379 39.5495 59.015 37.4824L59.0013 36.2724L58.9921 35.9929C58.9783 34.9799 58.9508 33.5866 59.5008 32.2987C60.0508 31.0016 61.0821 30.0574 61.8246 29.3791L62.0263 29.1958L62.9063 28.3754C64.4508 26.9454 65.4363 26.0195 66.0642 25.3045C65.1796 24.9149 63.8688 24.4795 61.82 23.8104L60.6742 23.4345C60.5841 23.4052 60.494 23.3762 60.4038 23.3474C59.4367 23.0358 58.1213 22.6141 57.0717 21.6837C56.0313 20.7579 55.4538 19.4974 55.0321 18.567C54.9928 18.4828 54.9531 18.3988 54.9129 18.3149L54.3996 17.2149C53.798 15.8449 53.139 14.5007 52.4242 13.1862ZM59.9363 42.2079C59.9408 42.2075 59.9454 42.2075 59.95 42.2079H59.9363ZM47.795 8.06203C48.9408 6.88411 50.6963 5.51828 53.1575 5.77036C55.5958 6.02703 57.0533 7.69536 57.9517 9.07036C58.8042 10.3674 59.6338 12.1595 60.5367 14.1074L60.6375 14.3229L61.1508 15.4229L61.5038 16.1791L61.6733 16.5183L62.0217 16.642L62.8054 16.9033L63.9558 17.2791L64.185 17.3524C66.2108 18.017 68.0808 18.6266 69.4742 19.3233C70.95 20.0566 72.7604 21.3079 73.3013 23.6866C73.8513 26.0837 72.7375 27.9949 71.7063 29.2783C70.7438 30.4929 69.3046 31.822 67.76 33.2566L67.5813 33.4216L66.7013 34.2374C66.4235 34.4973 66.1484 34.7601 65.8763 35.0258C65.8671 35.1129 65.8671 35.2229 65.8671 35.3649L65.8717 36.1899L65.89 37.4045V37.6429C65.9175 39.7787 65.9404 41.7495 65.7342 43.2849C65.5142 44.9029 64.9092 47.0616 62.7733 48.3174C60.6421 49.5687 58.465 49.0508 56.9433 48.4595C55.495 47.9004 53.7808 46.9241 51.92 45.8699L51.7138 45.7508L50.6596 45.1549C50.3163 44.9604 49.971 44.7695 49.6238 44.582C49.2559 44.6927 48.8892 44.8073 48.5238 44.9258L47.3779 45.297L47.1488 45.3704C45.1458 46.0258 43.2804 46.6354 41.7542 46.892C40.1271 47.167 37.9225 47.2129 36.0892 45.5812C34.265 43.9587 34.045 41.7679 34.1138 40.1224C34.1779 38.5687 34.5492 36.6391 34.9479 34.5491L34.9938 34.3154L35.2229 33.1283C35.2958 32.7379 35.3646 32.3514 35.4292 31.9595C35.1989 31.6301 34.9651 31.3032 34.7279 30.9787L34.0083 29.9979L33.8708 29.8054C32.5967 28.0774 31.4279 26.4824 30.6992 25.1074C29.9292 23.6637 29.1638 21.5783 30.1308 19.3187C31.1025 17.0362 33.1558 16.1654 34.7417 15.7437C36.2358 15.3449 38.1838 15.1249 40.2875 14.8912L40.5304 14.8637L41.7221 14.7262C42.1014 14.6843 42.4804 14.6385 42.8588 14.5887L43.0467 14.3366L43.5233 13.672L44.22 12.6912L44.3621 12.4941C45.5858 10.7754 46.7225 9.17578 47.7996 8.06661M103.808 41.8183C104.036 42.2083 104.184 42.6393 104.245 43.0867C104.306 43.5342 104.278 43.9892 104.163 44.4259C104.049 44.8626 103.849 45.2724 103.575 45.6318C103.302 45.9913 102.961 46.2933 102.57 46.5208C76.3858 61.7833 69.8958 86.437 69.8958 100.833C69.8958 101.745 69.5337 102.619 68.889 103.264C68.2444 103.909 67.37 104.271 66.4583 104.271C65.5467 104.271 64.6723 103.909 64.0277 103.264C63.383 102.619 63.0208 101.745 63.0208 100.833C63.0208 84.677 70.2808 57.3833 99.1008 40.5716C99.4908 40.344 99.9219 40.1954 100.369 40.1344C100.817 40.0734 101.272 40.1012 101.708 40.2161C102.145 40.331 102.555 40.5309 102.914 40.8042C103.274 41.0775 103.576 41.419 103.803 41.8091M51.3608 51.6999C52.2372 51.9505 52.9781 52.5388 53.4207 53.3356C53.8634 54.1323 53.9715 55.0723 53.7213 55.9487C52.0392 61.8291 51.6404 70.3587 51.9063 78.902C52.1675 87.3629 53.0704 95.4754 53.8129 100.315C53.8952 100.767 53.8861 101.231 53.786 101.679C53.686 102.128 53.4972 102.552 53.2306 102.926C52.9641 103.3 52.6253 103.617 52.2342 103.858C51.8431 104.099 51.4077 104.259 50.9537 104.329C50.4997 104.398 50.0363 104.377 49.5909 104.264C49.1454 104.152 48.727 103.952 48.3604 103.675C47.9937 103.398 47.6862 103.051 47.4561 102.653C47.2259 102.256 47.0778 101.816 47.0204 101.36C45.9361 93.9898 45.2719 86.5635 45.0313 79.1174C44.7608 70.4366 45.1229 61.0133 47.1121 54.0604C47.3627 53.184 47.951 52.4431 48.7477 52.0005C49.5445 51.5578 50.4844 51.4497 51.3608 51.6999Z" fill="white"/>
<path d="M22.9168 60.8117C22.9168 60.8117 25.8959 64.2355 28.5222 64.9367C31.1484 65.6471 35.443 64.1667 35.443 64.1667C35.443 64.1667 32.0101 67.1459 31.3089 69.7675C30.603 72.3938 32.088 76.6884 32.088 76.6884C32.088 76.6884 29.1089 73.26 26.4826 72.5542C23.8563 71.853 19.5618 73.3334 19.5618 73.3334C19.5618 73.3334 22.9901 70.3542 23.6914 67.728C24.3972 65.1017 22.9168 60.8117 22.9168 60.8117Z" stroke="white" stroke-width="4.58333" stroke-linejoin="round"/>
</svg>
