<svg width="110" height="110" viewBox="0 0 110 110" fill="none" xmlns="http://www.w3.org/2000/svg">
<path fill-rule="evenodd" clip-rule="evenodd" d="M41.25 9.16676C43.8514 9.16367 46.4236 9.71564 48.7947 10.7858C51.1658 11.856 53.2814 13.4197 55 15.3726C56.7186 13.4197 58.8342 11.856 61.2053 10.7858C63.5764 9.71564 66.1486 9.16367 68.75 9.16676H71.0417C72.865 9.16676 74.6137 9.89109 75.903 11.1804C77.1923 12.4697 77.9167 14.2184 77.9167 16.0418V18.3334C77.9167 21.6747 77.0229 24.8051 75.4646 27.5001H87.0833C89.5145 27.5001 91.8461 28.4659 93.5651 30.1849C95.2842 31.904 96.25 34.2356 96.25 36.6668V50.4168C96.25 52.0258 95.8264 53.6065 95.0218 55C94.2173 56.3934 93.0601 57.5506 91.6667 58.3551V82.5001C91.6667 86.1468 90.218 89.6442 87.6394 92.2228C85.0608 94.8014 81.5634 96.2501 77.9167 96.2501H32.0833C28.4366 96.2501 24.9392 94.8014 22.3606 92.2228C19.782 89.6442 18.3333 86.1468 18.3333 82.5001V58.3551C16.9399 57.5506 15.7827 56.3934 14.9782 55C14.1736 53.6065 13.75 52.0258 13.75 50.4168V36.6668C13.75 34.2356 14.7158 31.904 16.4349 30.1849C18.1539 28.4659 20.4855 27.5001 22.9167 27.5001H34.5354C32.9241 24.7142 32.0782 21.5517 32.0833 18.3334V16.0418C32.0833 14.2184 32.8077 12.4697 34.097 11.1804C35.3863 9.89109 37.135 9.16676 38.9583 9.16676H41.25ZM82.5 59.5834H59.5833V87.0834H77.9167L78.4529 87.0513C79.476 86.9307 80.4286 86.4689 81.157 85.7405C81.8855 85.012 82.3473 84.0594 82.4679 83.0363L82.5 82.5001V59.5834ZM50.4167 59.5834H27.5V82.5001C27.5001 83.6227 27.9123 84.7062 28.6583 85.5451C29.4043 86.384 30.4322 86.92 31.5471 87.0513L32.0833 87.0834H50.4167V59.5834ZM87.0833 36.6668H59.5833V50.4168H87.0833V36.6668ZM50.4167 36.6668H22.9167V50.4168H50.4167V36.6668ZM41.25 18.3334C41.25 20.7646 42.2158 23.0962 43.9349 24.8152C45.6539 26.5343 47.9855 27.5001 50.4167 27.5001C50.4167 25.0689 49.4509 22.7374 47.7318 21.0183C46.0127 19.2992 43.6812 18.3334 41.25 18.3334ZM68.75 18.3334C66.3189 18.3334 63.9873 19.2992 62.2682 21.0183C60.5491 22.7374 59.5833 25.0689 59.5833 27.5001C62.0145 27.5001 64.3461 26.5343 66.0651 24.8152C67.7842 23.0962 68.75 20.7646 68.75 18.3334Z" fill="white"/>
</svg>
