<svg width="111" height="110" viewBox="0 0 111 110" fill="none" xmlns="http://www.w3.org/2000/svg">
<path d="M46.0527 0.730469C49.4473 -0.966797 53.5723 0.408203 55.2695 3.80273L60.6406 14.5449L69.75 16.3711C73.9395 17.209 77.8711 19.0137 81.2441 21.6348L108.336 42.7109C111.344 45.0527 111.881 49.3711 109.539 52.3574C107.197 55.3438 102.879 55.9023 99.8926 53.5605L84.4023 41.5078L69.041 48.3398L76.1523 54.2695C81.1367 58.416 83.3496 65.0117 81.8887 71.3281L78.1504 87.4844C77.6777 89.5039 76.3887 91.0938 74.6914 91.9961L93.2754 99.1074C94.2637 99.4941 95.2949 99.666 96.3476 99.666H102.406C105.264 99.666 107.562 101.965 107.562 104.822C107.562 107.68 105.264 109.979 102.406 109.979H96.3476C94.0273 109.979 91.75 109.549 89.5801 108.732L13.9121 79.7715C11.4414 78.8262 9.18555 77.3652 7.29492 75.4746L2.50391 70.6836C0.484375 68.6641 0.484375 65.3984 2.50391 63.4004C4.52344 61.4023 7.78906 61.3809 9.78711 63.4004L14.5996 68.2129C15.459 69.0723 16.4688 69.7383 17.6074 70.168L22.4199 72.0156C22.248 71.6719 22.0977 71.3281 21.9688 70.9629C20.7656 67.3535 22.7207 63.4648 26.3086 62.2617L42.25 56.9121V45.4824C42.25 40.2832 45.1934 35.5137 49.8555 33.1934L59.5664 28.3379L57.9551 28.0156C53.7871 27.1777 50.2422 24.4707 48.3516 20.6895L42.9805 9.94727C41.2832 6.55273 42.6582 2.42773 46.0527 0.730469ZM30.8633 75.2168L65.0234 88.3008C64.5723 87.0977 64.4648 85.7441 64.7871 84.3906L68.5254 68.2344C68.8262 66.9668 68.375 65.6562 67.3867 64.8184L56.043 55.3652V59.4043C56.043 63.8516 53.207 67.7832 48.9961 69.1797L30.8633 75.2168ZM93.8125 0C96.5475 0 99.1706 1.08649 101.105 3.02046C103.039 4.95443 104.125 7.57746 104.125 10.3125C104.125 13.0475 103.039 15.6706 101.105 17.6045C99.1706 19.5385 96.5475 20.625 93.8125 20.625C91.0775 20.625 88.4544 19.5385 86.5205 17.6045C84.5865 15.6706 83.5 13.0475 83.5 10.3125C83.5 7.57746 84.5865 4.95443 86.5205 3.02046C88.4544 1.08649 91.0775 0 93.8125 0Z" fill="white"/>
</svg>
